*
G04 Job   : C:\Mentor_BBCRD\jobs\p869_1\pcb\p869_1.pcb*
G04 User  : RD000357:malcolmr*
G04 Layer : ComponentSide.gdo*
G04 Date  : Mon Jun 30 09:35:58 2014*
G04 BBC RD Gerber Output Definition*
%ICAS*%
%MOIN*%
%FSLAX24Y24*%
%OFA0.0000B0.0000*%
G90*
G74*
%AMVB_RECTANGLE*
21,1,$1,$2,0,0,$3*
%
%ADD13C,0.00500*%
%ADD10C,0.01000*%
%ADD11C,0.01500*%
%ADD12C,0.02000*%
%ADD18C,0.05000*%
%ADD17C,0.06000*%
%ADD16C,0.06500*%
%ADD14C,0.07500*%
%ADD15C,0.12500*%
%ADD19VB_RECTANGLE,0.06000X0.06000X270.00000*%
G01*
G54D10*
X817Y-12596D02*
X1692D01*
X1956Y-12893*
Y-13232*
X1695Y-13457*
X817*
Y-12596*
Y-11804D02*
X1693D01*
X1895Y-12029*
Y-12362*
X1695Y-12523*
X817*
Y-11804*
X1062Y-7523D02*
X759Y-7277D01*
X750Y-7271*
X748Y-7264*
X745Y-7257*
X743Y-7248*
Y-6013*
X745Y-6004*
X748Y-5997*
X752Y-5993*
X754Y-5990*
X757Y-5984*
X1062Y-5738*
X1067Y-5736*
X1072Y-5734*
X1074Y-5732*
X1081Y-5731*
X1688*
X1697Y-5732*
X1701Y-5734*
X1706Y-5736*
X1711Y-5738*
X2016Y-5984*
X2023Y-5993*
X2026Y-6008*
X2025Y-6019*
X2021Y-6028*
X2016Y-6035*
X2007Y-6042*
X1998Y-6047*
X1989Y-6049*
X1980*
X1972Y-6044*
X1675Y-5804*
X1094*
X817Y-6031*
Y-7230*
X1094Y-7457*
X1675*
X1972Y-7217*
X1980Y-7214*
X1989Y-7212*
X1998Y-7214*
X2007Y-7219*
X2016Y-7226*
X2021Y-7235*
X2025Y-7246*
X2026Y-7257*
X2023Y-7268*
X2016Y-7277*
X1711Y-7523*
X1704Y-7527*
X1702Y-7529*
X1697*
X1695Y-7531*
X1693*
X1688*
X1081*
X1074Y-7529*
X1067Y-7527*
X1062Y-7523*
X1704Y-8804D02*
X1717Y-8801D01*
X1728Y-8794*
X1733Y-8781*
X1735Y-8768*
X1733Y-8754*
X1728Y-8741*
X1717Y-8732*
X1704Y-8731*
X1002*
X988Y-8732*
X981Y-8741*
X975Y-8754*
X973Y-8768*
X975Y-8781*
X981Y-8794*
X988Y-8801*
X1002Y-8804*
X1317*
Y-10455*
X1002*
X988Y-10459*
X981Y-10468*
X975Y-10480*
X973Y-10495*
X975Y-10507*
X981Y-10520*
X988Y-10527*
X1002Y-10531*
X1704*
X1717Y-10527*
X1728Y-10520*
X1733Y-10507*
X1735Y-10495*
X1733Y-10480*
X1728Y-10468*
X1717Y-10459*
X1704Y-10455*
X1387*
Y-8804*
X1704*
X1969Y-12001D02*
X1737Y-11743D01*
X1724Y-11734*
X1711Y-11731*
X777*
X765Y-11734*
X754Y-11743*
X745Y-11754*
X741Y-11767*
Y-12553*
Y-12559*
Y-12564*
Y-13495*
X745Y-13507*
X754Y-13520*
X765Y-13529*
X777Y-13531*
X1722*
X2017Y-13273*
X2025Y-13262*
X2028Y-13248*
Y-12863*
X1764Y-12564*
X1953Y-12413*
X1958Y-12406*
X1963Y-12397*
X1967Y-12388*
X1969Y-12382*
Y-12001*
X2514Y-5804D02*
X3375D01*
X3655Y-6031*
Y-6366*
X3375Y-6595*
X2514*
Y-5804*
X2518Y-12031D02*
Y-13230D01*
X2795Y-13457*
X3376*
X3657Y-13230*
Y-12031*
X3376Y-11804*
X2795*
X2518Y-12031*
X3349Y-9600D02*
X3654Y-9847D01*
X3659Y-9854*
X3661Y-9863*
X3663Y-9868*
X3664Y-9874*
X3666Y-9877*
Y-10248*
X3664Y-10253*
X3661Y-10266*
X3659Y-10270*
X3654Y-10277*
X3351Y-10523*
X3342Y-10527*
X3340Y-10529*
X3337*
X3333Y-10531*
X3331*
X3328*
X2721*
X2714Y-10529*
X2707Y-10527*
X2700Y-10523*
X2397Y-10277*
X2388Y-10268*
X2386Y-10262*
Y-10257*
X2388Y-10244*
X2395Y-10232*
X2403Y-10223*
X2413Y-10216*
X2426Y-10214*
X2439Y-10217*
X2732Y-10457*
X3313*
X3594Y-10230*
Y-9895*
X3313Y-9667*
X2721*
X2714*
X2705Y-9665*
X2700Y-9661*
X2397Y-9415*
X2394Y-9413*
X2390Y-9409*
X2386Y-9404*
X2383Y-9391*
X2381Y-9384*
Y-9013*
X2383Y-9004*
X2386Y-8997*
X2390Y-8993*
X2394Y-8990*
X2397Y-8984*
X2700Y-8738*
X2707Y-8736*
X2712Y-8734*
X2714Y-8732*
X2721Y-8731*
X3328*
X3335Y-8732*
X3339Y-8734*
X3344Y-8736*
X3349Y-8738*
X3576Y-8923*
X3585Y-8932*
X3589Y-8943*
X3587Y-8956*
X3582Y-8968*
X3573Y-8977*
X3560Y-8984*
X3546Y-8986*
X3533Y-8983*
X3317Y-8804*
X2732*
X2455Y-9031*
Y-9366*
X2732Y-9595*
X3328*
X3335Y-9596*
X3342Y-9598*
X3349Y-9600*
X3715Y-6415D02*
X3720Y-6411D01*
X3722Y-6402*
X3727Y-6393*
Y-6384*
Y-6013*
Y-6004*
X3722Y-5999*
Y-5993*
X3720Y-5992*
X3718Y-5990*
X3715Y-5986*
X3409Y-5738*
X3400Y-5734*
X3393Y-5732*
X3385Y-5731*
X2478*
X2462Y-5734*
X2451Y-5743*
X2442Y-5754*
X2439Y-5767*
Y-7495*
X2442Y-7509*
X2451Y-7518*
X2462Y-7523*
X2475Y-7525*
X2489Y-7523*
X2502Y-7518*
X2511Y-7509*
X2514Y-7495*
Y-6667*
X3360*
X3655Y-7505*
X3663Y-7518*
X3675Y-7525*
X3690Y-7527*
X3700Y-7523*
X3711Y-7518*
X3720Y-7509*
X3726Y-7496*
X3722Y-7482*
X3427Y-6643*
X3715Y-6415*
X3729Y-12013D02*
Y-13248D01*
X3727Y-13257*
X3724Y-13264*
X3722Y-13271*
X3717Y-13277*
X3414Y-13523*
X3405Y-13527*
X3403Y-13529*
X3400*
X3396Y-13531*
X3394*
X3391*
X2784*
X2777Y-13529*
X2770Y-13527*
X2763Y-13523*
X2460Y-13277*
X2453Y-13271*
X2449Y-13264*
X2446Y-13257*
X2444Y-13248*
Y-12013*
X2446Y-12004*
X2449Y-11997*
X2453Y-11993*
X2457Y-11990*
X2460Y-11984*
X2763Y-11738*
X2770Y-11736*
X2775Y-11734*
X2777Y-11732*
X2784Y-11731*
X3391*
X3398Y-11732*
X3400*
X3402Y-11734*
X3407Y-11736*
X3414Y-11738*
X3717Y-11984*
X3718Y-11990*
X3722Y-11992*
X3724Y-11993*
Y-11997*
X3727Y-12004*
X3729Y-12013*
X4219Y-12766D02*
Y-12962D01*
X5358*
Y-12766*
X4789Y-11810*
X4219Y-12766*
X4401Y-7457D02*
X4386Y-7460D01*
X4379Y-7468*
X4374Y-7480*
X4372Y-7495*
X4374Y-7507*
X4379Y-7520*
X4386Y-7529*
X4401Y-7531*
X5103*
X5115Y-7529*
X5126Y-7520*
X5131Y-7507*
X5133Y-7495*
X5131Y-7480*
X5126Y-7468*
X5115Y-7460*
X5103Y-7457*
X4786*
Y-5767*
X4784Y-5754*
X4779Y-5745*
X4770Y-5740*
X4757Y-5738*
X4748Y-5736*
X4739*
X4732Y-5740*
X4725Y-5747*
X4374Y-6240*
X4368Y-6253*
Y-6265*
X4374Y-6276*
X4383Y-6285*
X4393Y-6292*
X4406Y-6296*
X4413*
X4419Y-6294*
X4428Y-6283*
X4716Y-5880*
Y-7457*
X4401*
X4771Y-11732D02*
X4813D01*
X4820Y-11734*
X4825Y-11738*
X4838Y-11747*
X4843Y-11750*
X5425Y-12733*
X5427Y-12740*
X5428Y-12744*
X5430Y-12748*
Y-12749*
Y-12753*
Y-13495*
X5427Y-13507*
X5419Y-13518*
X5407Y-13523*
X5394Y-13525*
X5382Y-13523*
X5369Y-13518*
X5362Y-13507*
X5358Y-13495*
Y-13036*
X4219*
Y-13495*
X4215Y-13507*
X4208Y-13518*
X4195Y-13523*
X4181Y-13525*
X4168Y-13523*
X4156Y-13518*
X4149Y-13507*
X4145Y-13495*
Y-12753*
Y-12749*
Y-12748*
X4147Y-12744*
X4149Y-12740*
X4150Y-12733*
X4739Y-11750*
X4748Y-11741*
X4759Y-11738*
X4766Y-11734*
X4771Y-11732*
X5050Y-9600D02*
X5355Y-9847D01*
X5360Y-9854*
X5362Y-9863*
X5364Y-9868*
X5365Y-9874*
X5367Y-9877*
Y-10248*
X5365Y-10253*
X5362Y-10266*
X5360Y-10270*
X5355Y-10277*
X5052Y-10523*
X5043Y-10527*
X5041Y-10529*
X5038*
X5034Y-10531*
X5032*
X5029*
X4422*
X4415Y-10529*
X4408Y-10527*
X4401Y-10523*
X4098Y-10277*
X4089Y-10268*
X4087Y-10262*
Y-10257*
X4089Y-10244*
X4096Y-10232*
X4104Y-10223*
X4114Y-10216*
X4127Y-10214*
X4140Y-10217*
X4433Y-10457*
X5014*
X5295Y-10230*
Y-9895*
X5014Y-9667*
X4422*
X4415*
X4406Y-9665*
X4401Y-9661*
X4098Y-9415*
X4095Y-9413*
X4091Y-9409*
X4087Y-9404*
X4084Y-9391*
X4082Y-9384*
Y-9013*
X4084Y-9004*
X4087Y-8997*
X4091Y-8993*
X4095Y-8990*
X4098Y-8984*
X4401Y-8738*
X4408Y-8736*
X4413Y-8734*
X4415Y-8732*
X4422Y-8731*
X5029*
X5036Y-8732*
X5040Y-8734*
X5045Y-8736*
X5050Y-8738*
X5277Y-8923*
X5286Y-8932*
X5290Y-8943*
X5288Y-8956*
X5283Y-8968*
X5274Y-8977*
X5261Y-8984*
X5247Y-8986*
X5234Y-8983*
X5018Y-8804*
X4433*
X4156Y-9031*
Y-9366*
X4433Y-9595*
X5029*
X5036Y-9596*
X5043Y-9598*
X5050Y-9600*
X5781Y-10248D02*
X5783Y-10257D01*
X5787Y-10264*
X5790Y-10271*
X5797Y-10277*
X6102Y-10523*
X6107Y-10527*
X6114Y-10529*
X6121Y-10531*
X6728*
X6735*
X6739Y-10529*
X6742Y-10527*
X6751Y-10523*
X7056Y-10277*
X7061Y-10271*
X7063Y-10264*
X7066Y-10257*
X7068Y-10248*
Y-8767*
X7065Y-8754*
X7056Y-8743*
X7045Y-8738*
X7032Y-8736*
X7020Y-8738*
X7007Y-8743*
X6998Y-8754*
X6996Y-8767*
Y-10230*
X6715Y-10457*
X6134*
X5857Y-10230*
Y-8767*
X5853Y-8754*
X5844Y-8743*
X5832Y-8738*
X5817Y-8736*
X5805Y-8738*
X5794Y-8743*
X5785Y-8754*
X5781Y-8767*
Y-10248*
X5923Y-11804D02*
X6784D01*
X7065Y-12031*
Y-12366*
X6784Y-12595*
X5923*
Y-11804*
X5968Y-6760D02*
Y-7293D01*
X6130Y-7457*
X6757*
X6917Y-7293*
Y-6760*
X6865Y-6605*
X6017*
X5968Y-6760*
Y-5970D02*
Y-6379D01*
X6017Y-6533*
X6865*
X6917Y-6379*
Y-5970*
X6757Y-5804*
X6130*
X5968Y-5970*
X6987Y-6395D02*
X6930Y-6568D01*
X6987Y-6740*
Y-6746*
X6989Y-6753*
Y-7309*
Y-7315*
X6987Y-7320*
X6985Y-7327*
X6978Y-7334*
X6798Y-7520*
X6791Y-7527*
X6780Y-7529*
X6773Y-7531*
X6112*
X6107*
X6102Y-7529*
X6094Y-7527*
X6087Y-7520*
X5907Y-7334*
X5900Y-7327*
X5896Y-7320*
Y-7309*
Y-6753*
Y-6746*
Y-6742*
X5898Y-6740*
X5956Y-6568*
X5898Y-6395*
X5896Y-6393*
Y-6382*
Y-5950*
Y-5943*
X5900Y-5934*
X5907Y-5925*
X6087Y-5740*
X6094Y-5734*
X6102Y-5732*
X6107Y-5731*
X6112*
X6773*
X6780Y-5732*
X6791Y-5734*
X6798Y-5740*
X6978Y-5925*
X6985Y-5936*
X6987Y-5943*
X6989Y-5950*
Y-6382*
Y-6389*
X6987Y-6393*
Y-6395*
X7124Y-12415D02*
X7129Y-12411D01*
X7131Y-12402*
X7137Y-12393*
Y-12384*
Y-12013*
Y-12004*
X7131Y-11999*
Y-11993*
X7129Y-11992*
X7128Y-11990*
X7124Y-11986*
X6818Y-11738*
X6809Y-11734*
X6802Y-11732*
X6795Y-11731*
X5887*
X5871Y-11734*
X5860Y-11743*
X5851Y-11754*
X5848Y-11767*
Y-13495*
X5851Y-13509*
X5860Y-13518*
X5871Y-13523*
X5884Y-13525*
X5898Y-13523*
X5911Y-13518*
X5920Y-13509*
X5923Y-13495*
Y-12667*
X6769*
X7065Y-13505*
X7072Y-13518*
X7084Y-13525*
X7099Y-13527*
X7110Y-13523*
X7120Y-13518*
X7129Y-13509*
X7135Y-13496*
X7131Y-13482*
X6836Y-12643*
X7124Y-12415*
X7588Y-6875D02*
X8557Y-5911D01*
Y-6875*
X7588*
X7624Y-11804D02*
X8483D01*
X8764Y-12031*
Y-13230*
X8483Y-13457*
X7624*
Y-11804*
X8519Y-11738D02*
X8510Y-11734D01*
X8503Y-11732*
X8496Y-11731*
X7585*
X7572Y-11734*
X7561Y-11743*
X7552Y-11754*
X7549Y-11767*
Y-13495*
X7552Y-13509*
X7561Y-13518*
X7572Y-13529*
X7585Y-13531*
X8496*
X8503*
X8506Y-13529*
X8510Y-13527*
X8519Y-13523*
X8823Y-13277*
X8829Y-13270*
X8830Y-13266*
X8834Y-13257*
X8836Y-13248*
Y-12013*
X8834Y-12004*
X8830Y-11999*
Y-11993*
X8829Y-11992*
X8825Y-11990*
X8823Y-11986*
X8519Y-11738*
X8557Y-7495D02*
X8559Y-7509D01*
X8568Y-7518*
X8580Y-7523*
X8593Y-7525*
X8605Y-7523*
X8616Y-7518*
X8625Y-7509*
X8629Y-7495*
Y-6949*
X8713*
X8726Y-6946*
X8737Y-6938*
X8742Y-6926*
X8744Y-6913*
X8742Y-6899*
X8737Y-6886*
X8726Y-6877*
X8713Y-6875*
X8629*
Y-5817*
X8627Y-5808*
X8622Y-5801*
X8614Y-5794*
X8605Y-5788*
X8595Y-5785*
X8584Y-5783*
X8575Y-5785*
X8566Y-5792*
X7473Y-6884*
X7466Y-6895*
X7462Y-6906*
X7464Y-6917*
X7471Y-6929*
X7475Y-6938*
X7482Y-6944*
X7489Y-6947*
X7498Y-6949*
X8557*
Y-7495*
X8733Y-8804D02*
X8746Y-8801D01*
X8757Y-8794*
X8762Y-8781*
X8764Y-8768*
X8762Y-8754*
X8757Y-8743*
X8746Y-8734*
X8733Y-8731*
X7518*
X7506Y-8734*
X7495Y-8743*
X7486Y-8754*
X7482Y-8767*
Y-10495*
X7486Y-10507*
X7495Y-10518*
X7506Y-10527*
X7518Y-10531*
X8733*
X8746Y-10527*
X8757Y-10520*
X8762Y-10507*
X8764Y-10495*
X8762Y-10480*
X8757Y-10468*
X8746Y-10459*
X8733Y-10455*
X7558*
Y-9667*
X8373*
X8386Y-9663*
X8397Y-9654*
X8402Y-9643*
X8404Y-9631*
X8402Y-9618*
X8397Y-9605*
X8386Y-9596*
X8373Y-9595*
X7558*
Y-8804*
X8733*
X9414Y-7477D02*
X9410Y-7489D01*
X9412Y-7502*
X9421Y-7513*
X9430Y-7520*
X9442Y-7523*
X9455Y-7525*
X9466Y-7522*
X9475Y-7511*
X10445Y-5785*
X10449Y-5776*
Y-5768*
Y-5761*
X10445Y-5754*
X10440Y-5743*
X10432Y-5736*
X10423Y-5732*
X10414Y-5731*
X9199*
X9187Y-5734*
X9178Y-5743*
X9171Y-5754*
X9169Y-5768*
X9171Y-5781*
X9178Y-5794*
X9187Y-5803*
X9199Y-5804*
X10353*
X9414Y-7477*
X10470Y-10495D02*
X10474Y-10509D01*
X10483Y-10518*
X10494Y-10523*
X10506Y-10525*
X10521Y-10523*
X10533Y-10518*
X10542Y-10509*
X10546Y-10495*
Y-8882*
X11692Y-10516*
X11698Y-10523*
X11707Y-10527*
X11716*
X11727Y-10523*
X11739Y-10520*
X11750Y-10514*
X11755Y-10505*
X11757Y-10495*
Y-8767*
X11754Y-8754*
X11745Y-8743*
X11734Y-8738*
X11721Y-8736*
X11709Y-8738*
X11696Y-8743*
X11687Y-8754*
X11685Y-8767*
Y-10379*
X10537Y-8747*
X10530Y-8740*
X10522Y-8736*
X10513*
X10504Y-8738*
X10490Y-8740*
X10479Y-8745*
X10474Y-8754*
X10470Y-8767*
Y-10495*
X10537Y-13495D02*
X10540Y-13509D01*
X10549Y-13518*
X10560Y-13523*
X10573Y-13525*
X10587Y-13523*
X10600Y-13518*
X10609Y-13509*
X10612Y-13495*
Y-11882*
X11759Y-13516*
X11764Y-13523*
X11773Y-13527*
X11782*
X11793Y-13523*
X11806Y-13520*
X11817Y-13514*
X11822Y-13505*
X11824Y-13495*
Y-11767*
X11820Y-11754*
X11811Y-11743*
X11800Y-11738*
X11788Y-11736*
X11775Y-11738*
X11763Y-11743*
X11754Y-11754*
X11752Y-11767*
Y-13379*
X10603Y-11747*
X10596Y-11740*
X10589Y-11736*
X10580*
X10571Y-11738*
X10557Y-11740*
X10546Y-11745*
X10540Y-11754*
X10537Y-11767*
Y-13495*
X12247Y-9031D02*
Y-10230D01*
X12524Y-10457*
X13105*
X13386Y-10230*
Y-9031*
X13105Y-8804*
X12524*
X12247Y-9031*
X12313Y-12031D02*
Y-13230D01*
X12591Y-13457*
X13172*
X13453Y-13230*
Y-12031*
X13172Y-11804*
X12591*
X12313Y-12031*
X13458Y-9013D02*
Y-10248D01*
X13456Y-10257*
X13453Y-10264*
X13451Y-10271*
X13446Y-10277*
X13143Y-10523*
X13134Y-10527*
X13132Y-10529*
X13129*
X13125Y-10531*
X13123*
X13120*
X12513*
X12506Y-10529*
X12499Y-10527*
X12492Y-10523*
X12189Y-10277*
X12182Y-10271*
X12178Y-10264*
X12175Y-10257*
X12173Y-10248*
Y-9013*
X12175Y-9004*
X12178Y-8997*
X12182Y-8993*
X12186Y-8990*
X12189Y-8984*
X12492Y-8738*
X12499Y-8736*
X12504Y-8734*
X12506Y-8732*
X12513Y-8731*
X13120*
X13127Y-8732*
X13129*
X13131Y-8734*
X13136Y-8736*
X13143Y-8738*
X13446Y-8984*
X13447Y-8990*
X13451Y-8992*
X13453Y-8993*
Y-8997*
X13456Y-9004*
X13458Y-9013*
X13525Y-12013D02*
Y-13248D01*
X13523Y-13257*
X13519Y-13264*
X13518Y-13271*
X13512Y-13277*
X13210Y-13523*
X13201Y-13527*
X13199Y-13529*
X13195*
X13192Y-13531*
X13190*
X13186*
X12580*
X12573Y-13529*
X12565Y-13527*
X12558Y-13523*
X12256Y-13277*
X12249Y-13271*
X12245Y-13264*
X12241Y-13257*
X12240Y-13248*
Y-12013*
X12241Y-12004*
X12245Y-11997*
X12249Y-11993*
X12252Y-11990*
X12256Y-11984*
X12558Y-11738*
X12565Y-11736*
X12571Y-11734*
X12573Y-11732*
X12580Y-11731*
X13186*
X13194Y-11732*
X13195*
X13197Y-11734*
X13203Y-11736*
X13210Y-11738*
X13512Y-11984*
X13514Y-11990*
X13518Y-11992*
X13519Y-11993*
Y-11997*
X13523Y-12004*
X13525Y-12013*
X15420Y-10457D02*
X15406Y-10460D01*
X15399Y-10468*
X15393Y-10480*
X15391Y-10495*
X15393Y-10507*
X15399Y-10520*
X15406Y-10529*
X15420Y-10531*
X16122*
X16135Y-10529*
X16146Y-10520*
X16151Y-10507*
X16153Y-10495*
X16151Y-10480*
X16146Y-10468*
X16135Y-10460*
X16122Y-10457*
X15805*
Y-8767*
X15804Y-8754*
X15798Y-8745*
X15789Y-8740*
X15777Y-8738*
X15768Y-8736*
X15759*
X15751Y-8740*
X15744Y-8747*
X15393Y-9240*
X15388Y-9253*
Y-9265*
X15393Y-9276*
X15402Y-9285*
X15413Y-9292*
X15426Y-9296*
X15433*
X15438Y-9294*
X15447Y-9283*
X15735Y-8880*
Y-10457*
X15420*
X19061Y-7523D02*
X18758Y-7277D01*
X18749Y-7271*
X18748Y-7264*
X18744Y-7257*
X18742Y-7248*
Y-6013*
X18744Y-6004*
X18748Y-5997*
X18751Y-5993*
X18753Y-5990*
X18757Y-5984*
X19061Y-5738*
X19066Y-5736*
X19072Y-5734*
X19073Y-5732*
X19081Y-5731*
X19687*
X19696Y-5732*
X19700Y-5734*
X19705Y-5736*
X19711Y-5738*
X20015Y-5984*
X20022Y-5993*
X20026Y-6008*
X20024Y-6019*
X20020Y-6028*
X20015Y-6035*
X20006Y-6042*
X19997Y-6047*
X19988Y-6049*
X19979*
X19972Y-6044*
X19675Y-5804*
X19093*
X18816Y-6031*
Y-7230*
X19093Y-7457*
X19675*
X19972Y-7217*
X19979Y-7214*
X19988Y-7212*
X19997Y-7214*
X20006Y-7219*
X20015Y-7226*
X20020Y-7235*
X20024Y-7246*
X20026Y-7257*
X20022Y-7268*
X20015Y-7277*
X19711Y-7523*
X19703Y-7527*
X19702Y-7529*
X19696*
X19694Y-7531*
X19693*
X19687*
X19081*
X19073Y-7529*
X19066Y-7527*
X19061Y-7523*
X20513Y-6031D02*
Y-7230D01*
X20791Y-7457*
X21372*
X21653Y-7230*
Y-6031*
X21372Y-5804*
X20791*
X20513Y-6031*
X21725Y-6013D02*
Y-7248D01*
X21723Y-7257*
X21719Y-7264*
X21718Y-7271*
X21712Y-7277*
X21410Y-7523*
X21401Y-7527*
X21399Y-7529*
X21395*
X21392Y-7531*
X21390*
X21386*
X20780*
X20773Y-7529*
X20765Y-7527*
X20758Y-7523*
X20456Y-7277*
X20449Y-7271*
X20445Y-7264*
X20441Y-7257*
X20440Y-7248*
Y-6013*
X20441Y-6004*
X20445Y-5997*
X20449Y-5993*
X20452Y-5990*
X20456Y-5984*
X20758Y-5738*
X20765Y-5736*
X20771Y-5734*
X20773Y-5732*
X20780Y-5731*
X21386*
X21394Y-5732*
X21395*
X21397Y-5734*
X21403Y-5736*
X21410Y-5738*
X21712Y-5984*
X21714Y-5990*
X21718Y-5992*
X21719Y-5993*
Y-5997*
X21723Y-6004*
X21725Y-6013*
X23354Y-7495D02*
X23356Y-7509D01*
X23365Y-7518*
X23377Y-7523*
X23390Y-7525*
X23402Y-7523*
X23413Y-7518*
X23422Y-7509*
X23426Y-7495*
Y-5774*
Y-5768*
Y-5767*
X23424Y-5754*
X23419Y-5745*
X23408Y-5740*
X23395Y-5738*
X23383Y-5736*
X23374Y-5738*
X23365Y-5741*
X23359Y-5749*
X22783Y-6683*
X22209Y-5749*
X22200Y-5740*
X22193Y-5736*
X22182*
X22173Y-5738*
X22159Y-5740*
X22148Y-5745*
X22142Y-5754*
X22139Y-5767*
Y-5768*
Y-5774*
Y-7495*
X22142Y-7509*
X22151Y-7518*
X22162Y-7523*
X22175Y-7525*
X22189Y-7523*
X22202Y-7518*
X22211Y-7509*
X22214Y-7495*
Y-5898*
X22751Y-6775*
X22758Y-6782*
X22765Y-6787*
X22774Y-6789*
X22783Y-6787*
X22792Y-6789*
X22801Y-6787*
X22808Y-6782*
X22816Y-6775*
X23354Y-5898*
Y-7495*
X23915Y-5804D02*
X24776D01*
X25057Y-6031*
Y-6366*
X24776Y-6595*
X23915*
Y-5804*
X25116Y-6415D02*
X25121Y-6411D01*
X25123Y-6402*
X25129Y-6393*
Y-6384*
Y-6013*
Y-6004*
X25123Y-5999*
Y-5993*
X25121Y-5992*
X25120Y-5990*
X25116Y-5986*
X24810Y-5738*
X24801Y-5734*
X24794Y-5732*
X24787Y-5731*
X23879*
X23863Y-5734*
X23852Y-5743*
X23843Y-5754*
X23840Y-5767*
Y-7495*
X23843Y-7509*
X23852Y-7518*
X23863Y-7523*
X23876Y-7525*
X23890Y-7523*
X23903Y-7518*
X23912Y-7509*
X23915Y-7495*
Y-6667*
X24787*
X24799Y-6665*
X24805Y-6663*
X24806*
X24810Y-6661*
X25116Y-6415*
X25616Y-6031D02*
Y-7230D01*
X25894Y-7457*
X26475*
X26756Y-7230*
Y-6031*
X26475Y-5804*
X25894*
X25616Y-6031*
X26828Y-6013D02*
Y-7248D01*
X26826Y-7257*
X26822Y-7264*
X26821Y-7271*
X26815Y-7277*
X26513Y-7523*
X26504Y-7527*
X26502Y-7529*
X26498*
X26495Y-7531*
X26493*
X26489*
X25883*
X25876Y-7529*
X25868Y-7527*
X25861Y-7523*
X25559Y-7277*
X25552Y-7271*
X25548Y-7264*
X25544Y-7257*
X25543Y-7248*
Y-6013*
X25544Y-6004*
X25548Y-5997*
X25552Y-5993*
X25555Y-5990*
X25559Y-5984*
X25861Y-5738*
X25868Y-5736*
X25874Y-5734*
X25876Y-5732*
X25883Y-5731*
X26489*
X26497Y-5732*
X26498*
X26500Y-5734*
X26506Y-5736*
X26513Y-5738*
X26815Y-5984*
X26817Y-5990*
X26821Y-5992*
X26822Y-5993*
Y-5997*
X26826Y-6004*
X26828Y-6013*
X27242Y-7495D02*
X27245Y-7509D01*
X27254Y-7518*
X27265Y-7523*
X27278Y-7525*
X27292Y-7523*
X27305Y-7518*
X27314Y-7509*
X27317Y-7495*
Y-5882*
X28464Y-7516*
X28469Y-7523*
X28478Y-7527*
X28487*
X28498Y-7523*
X28511Y-7520*
X28522Y-7514*
X28527Y-7505*
X28529Y-7495*
Y-5767*
X28525Y-5754*
X28516Y-5743*
X28505Y-5738*
X28493Y-5736*
X28480Y-5738*
X28468Y-5743*
X28459Y-5754*
X28457Y-5767*
Y-7379*
X27308Y-5747*
X27301Y-5740*
X27294Y-5736*
X27285*
X27276Y-5738*
X27262Y-5740*
X27251Y-5745*
X27245Y-5754*
X27242Y-5767*
Y-7495*
X30194Y-5804D02*
X30206Y-5801D01*
X30217Y-5794*
X30223Y-5781*
X30224Y-5768*
X30223Y-5754*
X30217Y-5743*
X30206Y-5734*
X30194Y-5731*
X28979*
X28966Y-5734*
X28955Y-5743*
X28946Y-5754*
X28943Y-5767*
Y-7495*
X28946Y-7507*
X28955Y-7518*
X28966Y-7527*
X28979Y-7531*
X30194*
X30206Y-7527*
X30217Y-7520*
X30223Y-7507*
X30224Y-7495*
X30223Y-7480*
X30217Y-7468*
X30206Y-7459*
X30194Y-7455*
X29018*
Y-6667*
X29834*
X29846Y-6663*
X29857Y-6654*
X29863Y-6643*
X29864Y-6631*
X29863Y-6618*
X29857Y-6605*
X29846Y-6596*
X29834Y-6595*
X29018*
Y-5804*
X30194*
X30644Y-7495D02*
X30647Y-7509D01*
X30656Y-7518*
X30667Y-7523*
X30680Y-7525*
X30694Y-7523*
X30707Y-7518*
X30716Y-7509*
X30719Y-7495*
Y-5882*
X31866Y-7516*
X31871Y-7523*
X31880Y-7527*
X31889*
X31900Y-7523*
X31913Y-7520*
X31924Y-7514*
X31929Y-7505*
X31931Y-7495*
Y-5767*
X31927Y-5754*
X31918Y-5743*
X31907Y-5738*
X31895Y-5736*
X31882Y-5738*
X31870Y-5743*
X31861Y-5754*
X31859Y-5767*
Y-7379*
X30710Y-5747*
X30703Y-5740*
X30696Y-5736*
X30687*
X30678Y-5738*
X30664Y-5740*
X30653Y-5745*
X30647Y-5754*
X30644Y-5767*
Y-7495*
X32953D02*
X32955Y-7507D01*
X32964Y-7518*
X32977Y-7523*
X32989Y-7525*
X33002Y-7523*
X33013Y-7518*
X33022Y-7507*
X33025Y-7495*
Y-5804*
X33596*
X33608Y-5801*
X33619Y-5794*
X33625Y-5781*
X33626Y-5768*
X33625Y-5754*
X33619Y-5741*
X33608Y-5732*
X33596Y-5731*
X32381*
X32368Y-5732*
X32359Y-5741*
X32352Y-5754*
X32350Y-5768*
X32352Y-5781*
X32359Y-5794*
X32368Y-5801*
X32381Y-5804*
X32953*
Y-7495*
X36303Y-6600D02*
X36607Y-6847D01*
X36613Y-6854*
X36614Y-6863*
X36616Y-6868*
X36618Y-6874*
X36620Y-6877*
Y-7248*
X36618Y-7253*
X36614Y-7266*
X36613Y-7270*
X36607Y-7277*
X36305Y-7523*
X36296Y-7527*
X36294Y-7529*
X36290*
X36287Y-7531*
X36285*
X36281*
X35675*
X35668Y-7529*
X35660Y-7527*
X35653Y-7523*
X35351Y-7277*
X35342Y-7268*
X35340Y-7262*
Y-7257*
X35342Y-7244*
X35349Y-7232*
X35356Y-7223*
X35367Y-7216*
X35380Y-7214*
X35392Y-7217*
X35686Y-7457*
X36267*
X36548Y-7230*
Y-6895*
X36267Y-6667*
X35675*
X35668*
X35659Y-6665*
X35653Y-6661*
X35351Y-6415*
X35347Y-6413*
X35344Y-6409*
X35340Y-6404*
X35336Y-6391*
X35335Y-6384*
Y-6013*
X35336Y-6004*
X35340Y-5997*
X35344Y-5993*
X35347Y-5990*
X35351Y-5984*
X35653Y-5738*
X35660Y-5736*
X35666Y-5734*
X35668Y-5732*
X35675Y-5731*
X36281*
X36289Y-5732*
X36292Y-5734*
X36298Y-5736*
X36303Y-5738*
X36530Y-5923*
X36539Y-5932*
X36542Y-5943*
X36541Y-5956*
X36535Y-5968*
X36526Y-5977*
X36514Y-5984*
X36499Y-5986*
X36487Y-5983*
X36271Y-5804*
X35686*
X35408Y-6031*
Y-6366*
X35686Y-6595*
X36281*
X36289Y-6596*
X36296Y-6598*
X36303Y-6600*
X37997Y-5804D02*
X38009Y-5801D01*
X38020Y-5794*
X38026Y-5781*
X38027Y-5768*
X38026Y-5754*
X38020Y-5741*
X38009Y-5732*
X37997Y-5731*
X37295*
X37280Y-5732*
X37273Y-5741*
X37268Y-5754*
X37266Y-5768*
X37268Y-5781*
X37273Y-5794*
X37280Y-5801*
X37295Y-5804*
X37610*
Y-7455*
X37295*
X37280Y-7459*
X37273Y-7468*
X37268Y-7480*
X37266Y-7495*
X37268Y-7507*
X37273Y-7520*
X37280Y-7527*
X37295Y-7531*
X37997*
X38009Y-7527*
X38020Y-7520*
X38026Y-7507*
X38027Y-7495*
X38026Y-7480*
X38020Y-7468*
X38009Y-7459*
X37997Y-7455*
X37680*
Y-5804*
X37997*
X38747D02*
X39606D01*
X39887Y-6031*
Y-7230*
X39606Y-7457*
X38747*
Y-5804*
X39642Y-5738D02*
X39633Y-5734D01*
X39626Y-5732*
X39619Y-5731*
X38708*
X38695Y-5734*
X38684Y-5743*
X38675Y-5754*
X38672Y-5767*
Y-7495*
X38675Y-7509*
X38684Y-7518*
X38695Y-7529*
X38708Y-7531*
X39619*
X39626*
X39629Y-7529*
X39633Y-7527*
X39642Y-7523*
X39946Y-7277*
X39952Y-7270*
X39953Y-7266*
X39957Y-7257*
X39959Y-7248*
Y-6013*
X39957Y-6004*
X39953Y-5999*
Y-5993*
X39952Y-5992*
X39948Y-5990*
X39946Y-5986*
X39642Y-5738*
X41624Y-5804D02*
X41636Y-5801D01*
X41647Y-5794*
X41653Y-5781*
X41654Y-5768*
X41653Y-5754*
X41647Y-5743*
X41636Y-5734*
X41624Y-5731*
X40409*
X40396Y-5734*
X40385Y-5743*
X40376Y-5754*
X40373Y-5767*
Y-7495*
X40376Y-7507*
X40385Y-7518*
X40396Y-7527*
X40409Y-7531*
X41624*
X41636Y-7527*
X41647Y-7520*
X41653Y-7507*
X41654Y-7495*
X41653Y-7480*
X41647Y-7468*
X41636Y-7459*
X41624Y-7455*
X40448*
Y-6667*
X41264*
X41276Y-6663*
X41287Y-6654*
X41293Y-6643*
X41294Y-6631*
X41293Y-6618*
X41287Y-6605*
X41276Y-6596*
X41264Y-6595*
X40448*
Y-5804*
X41624*
X47687Y-14008D02*
X47586Y-13926D01*
X47583Y-13924*
Y-13921*
X47581Y-13919*
Y-13916*
Y-13504*
Y-13501*
X47583Y-13499*
X47584Y-13498*
Y-13497*
X47586Y-13495*
X47687Y-13413*
X47689Y-13412*
X47691Y-13411*
X47694Y-13410*
X47896*
X47899Y-13411*
X47900*
X47902Y-13412*
X47904Y-13413*
X48005Y-13495*
X48007Y-13498*
X48009Y-13503*
X48008Y-13506*
X48007Y-13509*
X48005Y-13512*
X48002Y-13514*
X47999Y-13516*
X47996*
X47993*
X47991Y-13515*
X47892Y-13435*
X47698*
X47605Y-13510*
Y-13910*
X47698Y-13986*
X47892*
X47991Y-13906*
X47993Y-13905*
X47996Y-13904*
X47999Y-13905*
X48002Y-13906*
X48005Y-13909*
X48007Y-13912*
X48008Y-13915*
X48009Y-13919*
X48007Y-13923*
X48005Y-13926*
X47904Y-14008*
X47901Y-14009*
Y-14010*
X47899*
X47898*
X47896*
X47694*
X47691*
X47689Y-14009*
X47687Y-14008*
X48658Y-10000D02*
X48827Y-10137D01*
X48830Y-10141*
X48831Y-10146*
X48832Y-10149*
X48833Y-10152*
X48834Y-10154*
Y-10360*
X48833Y-10363*
X48831Y-10370*
X48830Y-10372*
X48827Y-10376*
X48659Y-10513*
X48654Y-10515*
X48653Y-10516*
X48651*
X48649Y-10517*
X48648*
X48646*
X48309*
X48305Y-10516*
X48301Y-10515*
X48297Y-10513*
X48129Y-10376*
X48124Y-10371*
X48123Y-10368*
Y-10365*
X48124Y-10358*
X48128Y-10351*
X48132Y-10346*
X48138Y-10342*
X48145Y-10341*
X48152Y-10343*
X48315Y-10476*
X48638*
X48794Y-10350*
Y-10164*
X48638Y-10037*
X48309*
X48305*
X48300Y-10036*
X48297Y-10034*
X48129Y-9897*
X48127Y-9896*
X48125Y-9894*
X48123Y-9891*
X48121Y-9884*
X48120Y-9880*
Y-9674*
X48121Y-9669*
X48123Y-9665*
X48125Y-9663*
X48127Y-9661*
X48129Y-9658*
X48297Y-9521*
X48301Y-9520*
X48304Y-9519*
X48305Y-9518*
X48309Y-9517*
X48646*
X48650Y-9518*
X48652Y-9519*
X48655Y-9520*
X48658Y-9521*
X48784Y-9624*
X48789Y-9629*
X48791Y-9635*
X48790Y-9642*
X48787Y-9649*
X48782Y-9654*
X48775Y-9658*
X48767Y-9659*
X48760Y-9657*
X48640Y-9558*
X48315*
X48161Y-9684*
Y-9870*
X48315Y-9997*
X48646*
X48650Y-9998*
X48654Y-9999*
X48658Y-10000*
X49242Y-10513D02*
X49074Y-10376D01*
X49069Y-10373*
X49068Y-10369*
X49066Y-10365*
X49065Y-10360*
Y-9674*
X49066Y-9669*
X49068Y-9665*
X49070Y-9663*
X49071Y-9661*
X49073Y-9658*
X49242Y-9521*
X49245Y-9520*
X49248Y-9519*
X49249Y-9518*
X49253Y-9517*
X49590*
X49595Y-9518*
X49597Y-9519*
X49600Y-9520*
X49603Y-9521*
X49772Y-9658*
X49776Y-9663*
X49778Y-9671*
X49777Y-9677*
X49775Y-9682*
X49772Y-9686*
X49767Y-9690*
X49762Y-9693*
X49757Y-9694*
X49752*
X49748Y-9691*
X49583Y-9558*
X49260*
X49106Y-9684*
Y-10350*
X49260Y-10476*
X49583*
X49748Y-10343*
X49752Y-10341*
X49757Y-10340*
X49762Y-10341*
X49767Y-10344*
X49772Y-10348*
X49775Y-10353*
X49777Y-10359*
X49778Y-10365*
X49776Y-10371*
X49772Y-10376*
X49603Y-10513*
X49599Y-10515*
X49598Y-10516*
X49595*
X49594Y-10517*
X49593*
X49590*
X49253*
X49249Y-10516*
X49245Y-10515*
X49242Y-10513*
X49539Y-13217D02*
X49674Y-13326D01*
X49676Y-13330*
X49677Y-13334*
X49678Y-13336*
X49679Y-13339*
Y-13449*
X49678Y-13452*
X49677Y-13457*
X49676Y-13461*
X49674Y-13462*
X49141Y-13895*
Y-13981*
X49663*
X49669Y-13982*
X49674Y-13986*
X49676Y-13991*
X49677Y-13998*
X49676Y-14003*
X49674Y-14009*
X49669Y-14012*
X49663Y-14014*
X49124*
X49118Y-14012*
X49114Y-14008*
X49110Y-14004*
X49108Y-13998*
Y-13888*
X49109Y-13886*
X49110Y-13880*
X49112Y-13878*
X49114Y-13876*
X49115Y-13874*
X49647Y-13441*
Y-13347*
X49522Y-13246*
X49264*
X49134Y-13353*
X49128Y-13354*
X49122*
X49118Y-13351*
X49114Y-13346*
X49111Y-13342*
X49110Y-13336*
Y-13333*
X49111Y-13330*
X49115Y-13326*
X49250Y-13217*
X49253Y-13216*
X49255Y-13215*
X49256Y-13214*
X49259*
X49529*
X49532*
X49533*
X49534Y-13215*
X49536Y-13216*
X49539Y-13217*
X49871Y-13326D02*
X50006Y-13217D01*
X50009Y-13216*
X50011Y-13215*
X50012Y-13214*
X50015*
X50285*
X50288*
X50289*
X50290Y-13215*
X50292Y-13216*
X50295Y-13217*
X50430Y-13326*
X50432Y-13330*
X50433Y-13334*
X50434Y-13336*
X50435Y-13339*
Y-13888*
X50434Y-13890*
X50433Y-13896*
X50432Y-13898*
X50430Y-13901*
X50295Y-14010*
X50292Y-14011*
X50290Y-14012*
X50289Y-14013*
X50287Y-14014*
X50285*
X50015*
X50012Y-14013*
X50009Y-14012*
X50006Y-14010*
X49871Y-13901*
X49870Y-13899*
X49868Y-13898*
X49866Y-13896*
X49865Y-13890*
X49864Y-13888*
Y-13339*
X49865Y-13336*
X49866Y-13334*
X49868Y-13330*
X49871Y-13326*
X49897Y-13347D02*
Y-13880D01*
X49944Y-13920*
X50331Y-13289*
X50278Y-13246*
X50020*
X49897Y-13347*
X49970Y-13941D02*
X50020Y-13981D01*
X50278*
X50403Y-13880*
Y-13347*
X50356Y-13310*
X49970Y-13941*
X50049Y-10092D02*
Y-10201D01*
X50682*
Y-10092*
X50366Y-9561*
X50049Y-10092*
X50356Y-9518D02*
X50379D01*
X50383Y-9519*
X50386Y-9521*
X50393Y-9526*
X50396Y-9528*
X50719Y-10074*
X50720Y-10078*
X50721Y-10080*
X50722Y-10082*
Y-10083*
Y-10085*
Y-10497*
X50720Y-10504*
X50716Y-10510*
X50709Y-10513*
X50702Y-10514*
X50695Y-10513*
X50688Y-10510*
X50684Y-10504*
X50682Y-10497*
Y-10242*
X50049*
Y-10497*
X50047Y-10504*
X50043Y-10510*
X50036Y-10513*
X50028Y-10514*
X50021Y-10513*
X50014Y-10510*
X50010Y-10504*
X50008Y-10497*
Y-10085*
Y-10083*
Y-10082*
X50009Y-10080*
X50010Y-10078*
X50011Y-10074*
X50338Y-9528*
X50343Y-9523*
X50349Y-9521*
X50353Y-9519*
X50356Y-9518*
X50735Y-13981D02*
X50729Y-13982D01*
X50726Y-13986*
X50723Y-13991*
X50722Y-13998*
X50723Y-14003*
X50726Y-14009*
X50729Y-14013*
X50735Y-14014*
X51047*
X51053Y-14013*
X51058Y-14009*
X51060Y-14003*
X51061Y-13998*
X51060Y-13991*
X51058Y-13986*
X51053Y-13982*
X51047Y-13981*
X50906*
Y-13230*
Y-13224*
X50903Y-13220*
X50899Y-13218*
X50894Y-13217*
X50890Y-13216*
X50886*
X50882Y-13218*
X50879Y-13221*
X50723Y-13440*
X50721Y-13446*
Y-13451*
X50723Y-13456*
X50727Y-13460*
X50732Y-13463*
X50738Y-13465*
X50741*
X50743Y-13464*
X50747Y-13459*
X50875Y-13280*
Y-13981*
X50735*
X50954Y-10497D02*
X50956Y-10505D01*
X50961Y-10510*
X50967Y-10516*
X50974Y-10517*
X51649*
X51656Y-10516*
X51662Y-10511*
X51665Y-10504*
X51666Y-10497*
X51665Y-10489*
X51662Y-10482*
X51656Y-10478*
X51649Y-10476*
X50996*
Y-9537*
X50994Y-9530*
X50989Y-9524*
X50982Y-9521*
X50974Y-9520*
X50967Y-9521*
X50961Y-9524*
X50956Y-9530*
X50954Y-9537*
Y-10497*
X51403Y-13722D02*
X51834Y-13294D01*
Y-13722*
X51403*
X51834Y-13998D02*
Y-14004D01*
X51838Y-14008*
X51844Y-14010*
X51850Y-14011*
X51855Y-14010*
X51860Y-14008*
X51864Y-14004*
X51866Y-13998*
Y-13755*
X51903*
X51909Y-13754*
X51914Y-13750*
X51916Y-13745*
X51917Y-13739*
X51916Y-13733*
X51914Y-13727*
X51909Y-13723*
X51903Y-13722*
X51866*
Y-13252*
X51865Y-13248*
X51862Y-13245*
X51859Y-13242*
X51855Y-13239*
X51850Y-13238*
X51846Y-13237*
X51842Y-13238*
X51838Y-13241*
X51352Y-13726*
X51349Y-13731*
X51347Y-13736*
X51348Y-13741*
X51351Y-13746*
X51353Y-13750*
X51356Y-13753*
X51359Y-13754*
X51363Y-13755*
X51834*
Y-13998*
X52015Y-5808D02*
X52493D01*
X52649Y-5934*
Y-6120*
X52493Y-6247*
X52015*
Y-5808*
X52594Y-9558D02*
X52601Y-9556D01*
X52607Y-9552*
X52610Y-9545*
X52611Y-9538*
X52610Y-9530*
X52607Y-9524*
X52601Y-9519*
X52594Y-9517*
X51919*
X51912Y-9519*
X51906Y-9524*
X51901Y-9530*
X51899Y-9537*
Y-10497*
X51901Y-10504*
X51906Y-10510*
X51912Y-10515*
X51919Y-10517*
X52594*
X52601Y-10515*
X52607Y-10511*
X52610Y-10504*
X52611Y-10497*
X52610Y-10489*
X52607Y-10482*
X52601Y-10477*
X52594Y-10475*
X51941*
Y-10037*
X52394*
X52401Y-10035*
X52407Y-10030*
X52410Y-10024*
X52411Y-10017*
X52410Y-10010*
X52407Y-10003*
X52401Y-9998*
X52394Y-9997*
X51941*
Y-9558*
X52594*
X52682Y-6147D02*
X52685Y-6145D01*
X52686Y-6140*
X52689Y-6135*
Y-6130*
Y-5924*
Y-5919*
X52686Y-5916*
Y-5913*
X52685Y-5912*
X52684Y-5911*
X52682Y-5909*
X52512Y-5771*
X52507Y-5769*
X52503Y-5768*
X52499Y-5767*
X51995*
X51986Y-5769*
X51980Y-5774*
X51975Y-5780*
X51973Y-5787*
Y-6747*
X51975Y-6755*
X51980Y-6760*
X51986Y-6763*
X51993Y-6764*
X52001Y-6763*
X52008Y-6760*
X52013Y-6755*
X52015Y-6747*
Y-6287*
X52485*
X52649Y-6753*
X52653Y-6760*
X52660Y-6764*
X52668Y-6765*
X52674Y-6763*
X52680Y-6760*
X52685Y-6755*
X52688Y-6748*
X52686Y-6740*
X52522Y-6274*
X52682Y-6147*
X52709Y-13598D02*
X53098D01*
X53215Y-13730*
Y-13881*
X53099Y-13981*
X52709*
Y-13598*
Y-13246D02*
X53098D01*
X53188Y-13346*
Y-13494*
X53099Y-13566*
X52709*
Y-13246*
X53221Y-13334D02*
X53118Y-13219D01*
X53112Y-13215*
X53106Y-13214*
X52691*
X52686Y-13215*
X52681Y-13219*
X52677Y-13224*
X52675Y-13230*
Y-13579*
Y-13582*
Y-13584*
Y-13998*
X52677Y-14003*
X52681Y-14009*
X52686Y-14013*
X52691Y-14014*
X53111*
X53242Y-13899*
X53246Y-13894*
X53247Y-13888*
Y-13717*
X53130Y-13584*
X53214Y-13517*
X53216Y-13514*
X53218Y-13510*
X53220Y-13506*
X53221Y-13503*
Y-13334*
X53465Y-13246D02*
X53847D01*
X53972Y-13347*
Y-13496*
X53847Y-13598*
X53465*
Y-13246*
X53613Y-5808D02*
X53620Y-5806D01*
X53626Y-5802*
X53629Y-5795*
X53630Y-5788*
X53629Y-5780*
X53626Y-5774*
X53620Y-5769*
X53613Y-5767*
X52938*
X52931Y-5769*
X52925Y-5774*
X52920Y-5780*
X52918Y-5787*
Y-6747*
X52920Y-6754*
X52925Y-6760*
X52931Y-6765*
X52938Y-6767*
X53613*
X53620Y-6765*
X53626Y-6761*
X53629Y-6754*
X53630Y-6747*
X53629Y-6739*
X53626Y-6732*
X53620Y-6727*
X53613Y-6725*
X52960*
Y-6287*
X53413*
X53420Y-6285*
X53426Y-6280*
X53429Y-6274*
X53430Y-6267*
X53429Y-6260*
X53426Y-6253*
X53420Y-6248*
X53413Y-6247*
X52960*
Y-5808*
X53613*
X53704Y-10476D02*
X53696Y-10478D01*
X53692Y-10482*
X53689Y-10489*
X53688Y-10497*
X53689Y-10504*
X53692Y-10511*
X53696Y-10516*
X53704Y-10517*
X54094*
X54101Y-10516*
X54107Y-10511*
X54110Y-10504*
X54111Y-10497*
X54110Y-10489*
X54107Y-10482*
X54101Y-10478*
X54094Y-10476*
X53918*
Y-9537*
X53917Y-9530*
X53914Y-9525*
X53909Y-9522*
X53902Y-9521*
X53897Y-9520*
X53892*
X53888Y-9522*
X53884Y-9526*
X53689Y-9800*
X53686Y-9807*
Y-9814*
X53689Y-9820*
X53694Y-9825*
X53700Y-9829*
X53707Y-9831*
X53711*
X53714Y-9830*
X53719Y-9824*
X53879Y-9600*
Y-10476*
X53704*
X53998Y-13518D02*
X54001Y-13516D01*
X54002Y-13512*
X54004Y-13508*
Y-13504*
Y-13339*
Y-13335*
X54002Y-13333*
Y-13330*
X54001*
X54000Y-13329*
X53998Y-13327*
X53862Y-13217*
X53858Y-13215*
X53855Y-13214*
X53852*
X53449*
X53442Y-13215*
X53437Y-13219*
X53433Y-13224*
X53431Y-13230*
Y-13998*
X53433Y-14004*
X53437Y-14008*
X53442Y-14010*
X53447Y-14011*
X53454Y-14010*
X53459Y-14008*
X53463Y-14004*
X53465Y-13998*
Y-13630*
X53841*
X53972Y-14002*
X53975Y-14008*
X53981Y-14011*
X53987Y-14012*
X53992Y-14010*
X53997Y-14008*
X54001Y-14004*
X54003Y-13998*
X54002Y-13992*
X53870Y-13619*
X53998Y-13518*
X54402Y-6250D02*
X54571Y-6387D01*
X54574Y-6391*
X54575Y-6396*
X54576Y-6399*
X54577Y-6402*
X54578Y-6404*
Y-6610*
X54577Y-6613*
X54575Y-6620*
X54574Y-6622*
X54571Y-6626*
X54403Y-6763*
X54398Y-6765*
X54397Y-6766*
X54395*
X54393Y-6767*
X54392*
X54390*
X54053*
X54049Y-6766*
X54045Y-6765*
X54041Y-6763*
X53873Y-6626*
X53868Y-6621*
X53867Y-6618*
Y-6615*
X53868Y-6608*
X53872Y-6601*
X53876Y-6596*
X53882Y-6592*
X53889Y-6591*
X53896Y-6593*
X54059Y-6726*
X54382*
X54538Y-6600*
Y-6414*
X54382Y-6287*
X54053*
X54049*
X54044Y-6286*
X54041Y-6284*
X53873Y-6147*
X53871Y-6146*
X53869Y-6144*
X53867Y-6141*
X53865Y-6134*
X53864Y-6130*
Y-5924*
X53865Y-5919*
X53867Y-5915*
X53869Y-5913*
X53871Y-5911*
X53873Y-5908*
X54041Y-5771*
X54045Y-5770*
X54048Y-5769*
X54049Y-5768*
X54053Y-5767*
X54390*
X54394Y-5768*
X54396Y-5769*
X54399Y-5770*
X54402Y-5771*
X54528Y-5874*
X54533Y-5879*
X54535Y-5885*
X54534Y-5892*
X54531Y-5899*
X54526Y-5904*
X54519Y-5908*
X54511Y-5909*
X54504Y-5907*
X54384Y-5808*
X54059*
X53905Y-5934*
Y-6120*
X54059Y-6247*
X54390*
X54394Y-6248*
X54398Y-6249*
X54402Y-6250*
X54615Y-13246D02*
X54621Y-13245D01*
X54626Y-13242*
X54628Y-13236*
X54629Y-13230*
X54628Y-13224*
X54626Y-13218*
X54621Y-13214*
X54615*
X54303*
X54297*
X54294Y-13218*
X54291Y-13224*
X54290Y-13230*
X54291Y-13236*
X54294Y-13242*
X54297Y-13245*
X54303Y-13246*
X54443*
Y-13980*
X54303*
X54297Y-13982*
X54294Y-13986*
X54291Y-13991*
X54290Y-13998*
X54291Y-14003*
X54294Y-14009*
X54297Y-14012*
X54303Y-14014*
X54615*
X54621Y-14012*
X54626Y-14009*
X54628Y-14003*
X54629Y-13998*
X54628Y-13991*
X54626Y-13986*
X54621Y-13982*
X54615Y-13980*
X54474*
Y-13246*
X54615*
X54665Y-10364D02*
Y-10497D01*
X54667Y-10505*
X54671Y-10510*
X54675Y-10515*
X54681Y-10517*
X54791*
X54797Y-10515*
X54802Y-10510*
X54807Y-10504*
X54808Y-10497*
Y-10364*
X54807Y-10357*
X54802Y-10351*
X54797Y-10346*
X54791Y-10344*
X54681*
X54675Y-10346*
X54671Y-10351*
X54667Y-10357*
X54665Y-10364*
Y-9965D02*
Y-10098D01*
X54667Y-10106*
X54671Y-10111*
X54675Y-10116*
X54681Y-10118*
X54791*
X54797Y-10116*
X54802Y-10111*
X54807Y-10105*
X54808Y-10098*
Y-9965*
X54807Y-9958*
X54802Y-9952*
X54797Y-9947*
X54791Y-9945*
X54681*
X54675Y-9947*
X54671Y-9952*
X54667Y-9958*
X54665Y-9965*
X54698Y-10384D02*
X54775D01*
Y-10477*
X54698*
Y-10384*
Y-9985D02*
X54775D01*
Y-10078*
X54698*
Y-9985*
X55186Y-13998D02*
Y-14003D01*
X55190Y-14008*
X55196Y-14010*
X55202Y-14011*
X55207Y-14010*
X55212Y-14008*
X55216Y-14003*
X55218Y-13998*
Y-13246*
X55471*
X55477Y-13245*
X55482Y-13242*
X55484Y-13236*
X55485Y-13230*
X55484Y-13224*
X55482Y-13218*
X55477Y-13214*
X55471*
X54931*
X54926*
X54922Y-13218*
X54918Y-13224*
Y-13230*
Y-13236*
X54922Y-13242*
X54926Y-13245*
X54931Y-13246*
X55186*
Y-13998*
X55383Y-10476D02*
X55375Y-10478D01*
X55371Y-10482*
X55368Y-10489*
X55367Y-10497*
X55368Y-10504*
X55371Y-10511*
X55375Y-10516*
X55383Y-10517*
X55773*
X55780Y-10516*
X55786Y-10511*
X55789Y-10504*
X55790Y-10497*
X55789Y-10489*
X55786Y-10482*
X55780Y-10478*
X55773Y-10476*
X55597*
Y-9537*
X55596Y-9530*
X55593Y-9525*
X55588Y-9522*
X55581Y-9521*
X55576Y-9520*
X55571*
X55567Y-9522*
X55563Y-9526*
X55368Y-9800*
X55365Y-9807*
Y-9814*
X55368Y-9820*
X55373Y-9825*
X55379Y-9829*
X55386Y-9831*
X55390*
X55393Y-9830*
X55398Y-9824*
X55558Y-9600*
Y-10476*
X55383*
X55503Y-5808D02*
X55510Y-5806D01*
X55516Y-5802*
X55519Y-5795*
X55520Y-5788*
X55519Y-5780*
X55516Y-5774*
X55510Y-5769*
X55503Y-5767*
X54828*
X54821Y-5769*
X54815Y-5774*
X54810Y-5780*
X54808Y-5787*
Y-6747*
X54810Y-6754*
X54815Y-6760*
X54821Y-6765*
X54828Y-6767*
X55503*
X55510Y-6765*
X55516Y-6761*
X55519Y-6754*
X55520Y-6747*
X55519Y-6739*
X55516Y-6732*
X55510Y-6727*
X55503Y-6725*
X54850*
Y-6287*
X55303*
X55310Y-6285*
X55316Y-6280*
X55319Y-6274*
X55320Y-6267*
X55319Y-6260*
X55316Y-6253*
X55310Y-6248*
X55303Y-6247*
X54850*
Y-5808*
X55503*
X55795Y-6342D02*
Y-6451D01*
X56428*
Y-6342*
X56112Y-5811*
X55795Y-6342*
X56099Y-13246D02*
X56105Y-13245D01*
X56110Y-13242*
X56112Y-13236*
X56113Y-13230*
X56112Y-13224*
X56110Y-13218*
X56105Y-13214*
X56099*
X55787*
X55781*
X55778Y-13218*
X55775Y-13224*
X55774Y-13230*
X55775Y-13236*
X55778Y-13242*
X55781Y-13245*
X55787Y-13246*
X55927*
Y-13980*
X55787*
X55781Y-13982*
X55778Y-13986*
X55775Y-13991*
X55774Y-13998*
X55775Y-14003*
X55778Y-14009*
X55781Y-14012*
X55787Y-14014*
X56099*
X56105Y-14012*
X56110Y-14009*
X56112Y-14003*
X56113Y-13998*
X56112Y-13991*
X56110Y-13986*
X56105Y-13982*
X56099Y-13980*
X55958*
Y-13246*
X56099*
X56102Y-5768D02*
X56125D01*
X56129Y-5769*
X56132Y-5771*
X56139Y-5776*
X56142Y-5778*
X56465Y-6324*
X56466Y-6328*
X56467Y-6330*
X56468Y-6332*
Y-6333*
Y-6335*
Y-6747*
X56466Y-6754*
X56462Y-6760*
X56455Y-6763*
X56448Y-6764*
X56441Y-6763*
X56434Y-6760*
X56430Y-6754*
X56428Y-6747*
Y-6492*
X55795*
Y-6747*
X55793Y-6754*
X55789Y-6760*
X55782Y-6763*
X55774Y-6764*
X55767Y-6763*
X55760Y-6760*
X55756Y-6754*
X55754Y-6747*
Y-6335*
Y-6333*
Y-6332*
X55755Y-6330*
X55756Y-6328*
X55757Y-6324*
X56084Y-5778*
X56089Y-5773*
X56095Y-5771*
X56099Y-5769*
X56102Y-5768*
X56742Y-5808D02*
X57220D01*
X57376Y-5934*
Y-6120*
X57220Y-6247*
X56742*
Y-5808*
X56830Y-13600D02*
X56966Y-13710D01*
X56968Y-13713*
X56969Y-13717*
X56970Y-13719*
Y-13722*
X56971Y-13723*
Y-13888*
X56970Y-13890*
X56969Y-13896*
X56968Y-13898*
X56966Y-13901*
X56831Y-14010*
X56827Y-14012*
X56826Y-14013*
X56825*
X56823Y-14014*
X56822*
X56821*
X56551*
X56548Y-14013*
X56545Y-14012*
X56542Y-14010*
X56407Y-13901*
X56403Y-13897*
X56402Y-13894*
Y-13892*
X56403Y-13886*
X56406Y-13881*
X56410Y-13877*
X56414Y-13874*
X56420Y-13873*
X56426Y-13874*
X56556Y-13981*
X56814*
X56939Y-13880*
Y-13731*
X56814Y-13630*
X56551*
X56548*
X56544Y-13629*
X56542Y-13627*
X56407Y-13518*
X56406Y-13517*
X56404Y-13515*
X56402Y-13513*
X56401Y-13507*
X56400Y-13504*
Y-13339*
X56401Y-13335*
X56402Y-13332*
X56404Y-13330*
X56406Y-13329*
X56407Y-13326*
X56542Y-13217*
X56545Y-13216*
X56547Y-13215*
X56548Y-13214*
X56551*
X56821*
X56824*
X56826Y-13215*
X56828Y-13216*
X56830Y-13217*
X56931Y-13299*
X56935Y-13303*
X56937Y-13308*
X56936Y-13314*
X56934Y-13319*
X56930Y-13323*
X56924Y-13326*
X56918Y-13327*
X56912Y-13326*
X56816Y-13246*
X56556*
X56433Y-13347*
Y-13496*
X56556Y-13598*
X56821*
X56824*
X56827Y-13599*
X56830Y-13600*
X57155Y-13998D02*
X57157Y-14004D01*
X57161Y-14008*
X57166Y-14010*
X57171Y-14011*
X57178Y-14010*
X57183Y-14008*
X57187Y-14004*
X57189Y-13998*
Y-13630*
X57695*
Y-13998*
X57696Y-14004*
X57700Y-14008*
X57706Y-14010*
X57711Y-14011*
X57717Y-14010*
X57722Y-14008*
X57726Y-14004*
X57727Y-13998*
Y-13230*
X57726Y-13224*
X57722Y-13219*
X57717Y-13217*
X57711Y-13216*
X57706Y-13217*
X57700Y-13219*
X57696Y-13224*
X57695Y-13230*
Y-13598*
X57189*
Y-13230*
X57187Y-13224*
X57183Y-13219*
X57178Y-13217*
X57171Y-13216*
X57166Y-13217*
X57161Y-13219*
X57157Y-13224*
X57155Y-13230*
Y-13998*
X57409Y-6147D02*
X57412Y-6145D01*
X57413Y-6140*
X57416Y-6135*
Y-6130*
Y-5924*
Y-5919*
X57413Y-5916*
Y-5913*
X57412Y-5912*
X57411Y-5911*
X57409Y-5909*
X57239Y-5771*
X57234Y-5769*
X57230Y-5768*
X57226Y-5767*
X56722*
X56713Y-5769*
X56707Y-5774*
X56702Y-5780*
X56700Y-5787*
Y-6747*
X56702Y-6755*
X56707Y-6760*
X56713Y-6763*
X56720Y-6764*
X56728Y-6763*
X56735Y-6760*
X56740Y-6755*
X56742Y-6747*
Y-6287*
X57212*
X57376Y-6753*
X57380Y-6760*
X57387Y-6764*
X57395Y-6765*
X57401Y-6763*
X57407Y-6760*
X57412Y-6755*
X57415Y-6748*
X57413Y-6740*
X57249Y-6274*
X57409Y-6147*
X57823Y-6763D02*
X57655Y-6626D01*
X57650Y-6623*
X57649Y-6619*
X57647Y-6615*
X57646Y-6610*
Y-5924*
X57647Y-5919*
X57649Y-5915*
X57651Y-5913*
X57652Y-5911*
X57654Y-5908*
X57823Y-5771*
X57826Y-5770*
X57829Y-5769*
X57830Y-5768*
X57834Y-5767*
X58171*
X58176Y-5768*
X58178Y-5769*
X58181Y-5770*
X58184Y-5771*
X58353Y-5908*
X58357Y-5913*
X58359Y-5921*
X58358Y-5927*
X58356Y-5932*
X58353Y-5936*
X58348Y-5940*
X58343Y-5943*
X58338Y-5944*
X58333*
X58329Y-5941*
X58164Y-5808*
X57841*
X57687Y-5934*
Y-6600*
X57841Y-6726*
X58164*
X58329Y-6593*
X58333Y-6591*
X58338Y-6590*
X58343Y-6591*
X58348Y-6594*
X58353Y-6598*
X58356Y-6603*
X58358Y-6609*
X58359Y-6615*
X58357Y-6621*
X58353Y-6626*
X58184Y-6763*
X58180Y-6765*
X58179Y-6766*
X58176*
X58175Y-6767*
X58174*
X58171*
X57834*
X57830Y-6766*
X57826Y-6765*
X57823Y-6763*
X58517Y-13598D02*
X58906D01*
X59023Y-13730*
Y-13881*
X58907Y-13981*
X58517*
Y-13598*
Y-13246D02*
X58906D01*
X58996Y-13346*
Y-13494*
X58907Y-13566*
X58517*
Y-13246*
X58588Y-6747D02*
X58590Y-6755D01*
X58595Y-6760*
X58601Y-6763*
X58608Y-6764*
X58616Y-6763*
X58623Y-6760*
X58628Y-6755*
X58630Y-6747*
Y-6287*
X59263*
Y-6747*
X59264Y-6755*
X59269Y-6760*
X59276Y-6763*
X59283Y-6764*
X59290Y-6763*
X59296Y-6760*
X59301Y-6755*
X59303Y-6747*
Y-5787*
X59301Y-5780*
X59296Y-5774*
X59290Y-5771*
X59283Y-5770*
X59276Y-5771*
X59269Y-5774*
X59264Y-5780*
X59263Y-5787*
Y-6247*
X58630*
Y-5787*
X58628Y-5780*
X58623Y-5774*
X58616Y-5771*
X58608Y-5770*
X58601Y-5771*
X58595Y-5774*
X58590Y-5780*
X58588Y-5787*
Y-6747*
X59029Y-13334D02*
X58926Y-13219D01*
X58920Y-13215*
X58914Y-13214*
X58499*
X58494Y-13215*
X58489Y-13219*
X58485Y-13224*
X58483Y-13230*
Y-13579*
Y-13582*
Y-13584*
Y-13998*
X58485Y-14003*
X58489Y-14009*
X58494Y-14013*
X58499Y-14014*
X58919*
X59050Y-13899*
X59054Y-13894*
X59055Y-13888*
Y-13717*
X58938Y-13584*
X59022Y-13517*
X59024Y-13514*
X59026Y-13510*
X59028Y-13506*
X59029Y-13503*
Y-13334*
X59163Y-7746D02*
X59169Y-7745D01*
X59174Y-7742*
X59176Y-7736*
X59177Y-7730*
X59176Y-7724*
X59174Y-7719*
X59169Y-7715*
X59163Y-7714*
X58623*
X58618Y-7715*
X58613Y-7719*
X58609Y-7724*
X58607Y-7730*
Y-8498*
X58609Y-8503*
X58613Y-8508*
X58618Y-8510*
X58623Y-8511*
X58630Y-8510*
X58635Y-8508*
X58639Y-8503*
X58641Y-8498*
Y-8094*
X59003*
X59009Y-8093*
X59014Y-8089*
X59016Y-8083*
X59017Y-8078*
X59016Y-8072*
X59014Y-8066*
X59009Y-8062*
X59003Y-8061*
X58641*
Y-7746*
X59163*
X59273Y-13246D02*
X59655D01*
X59780Y-13347*
Y-13496*
X59655Y-13598*
X59273*
Y-13246*
X59791Y-7746D02*
X59797Y-7745D01*
X59802Y-7742*
X59804Y-7736*
X59805Y-7730*
X59804Y-7724*
X59802Y-7718*
X59797Y-7714*
X59791*
X59479*
X59473*
X59470Y-7718*
X59467Y-7724*
X59466Y-7730*
X59467Y-7736*
X59470Y-7742*
X59473Y-7745*
X59479Y-7746*
X59619*
Y-8480*
X59479*
X59473Y-8482*
X59470Y-8486*
X59467Y-8491*
X59466Y-8498*
X59467Y-8503*
X59470Y-8509*
X59473Y-8512*
X59479Y-8514*
X59791*
X59797Y-8512*
X59802Y-8509*
X59804Y-8503*
X59805Y-8498*
X59804Y-8491*
X59802Y-8486*
X59797Y-8482*
X59791Y-8480*
X59650*
Y-7746*
X59791*
X59806Y-13518D02*
X59809Y-13516D01*
X59810Y-13512*
X59812Y-13508*
Y-13504*
Y-13339*
Y-13335*
X59810Y-13333*
Y-13330*
X59809*
X59808Y-13329*
X59806Y-13327*
X59670Y-13217*
X59666Y-13215*
X59663Y-13214*
X59660*
X59257*
X59250Y-13215*
X59245Y-13219*
X59241Y-13224*
X59239Y-13230*
Y-13998*
X59241Y-14004*
X59245Y-14008*
X59250Y-14010*
X59255Y-14011*
X59262Y-14010*
X59267Y-14008*
X59271Y-14004*
X59273Y-13998*
Y-13630*
X59649*
X59780Y-14002*
X59783Y-14008*
X59789Y-14011*
X59795Y-14012*
X59800Y-14010*
X59805Y-14008*
X59809Y-14004*
X59811Y-13998*
X59810Y-13992*
X59678Y-13619*
X59806Y-13518*
X60029Y-13347D02*
Y-13880D01*
X60152Y-13981*
X60410*
X60535Y-13880*
Y-13347*
X60410Y-13246*
X60152*
X60029Y-13347*
X60091Y-8498D02*
X60093Y-8504D01*
X60097Y-8508*
X60102Y-8513*
X60107Y-8514*
X60647*
X60653Y-8513*
X60658Y-8509*
X60660Y-8503*
X60661Y-8498*
X60660Y-8491*
X60658Y-8486*
X60653Y-8482*
X60647Y-8481*
X60125*
Y-7730*
X60123Y-7724*
X60119Y-7719*
X60114Y-7717*
X60107Y-7716*
X60102Y-7717*
X60097Y-7719*
X60093Y-7724*
X60091Y-7730*
Y-8498*
X60285Y-6504D02*
X60511Y-6198D01*
X60353Y-5984*
X60351Y-5981*
X60350Y-5976*
Y-5971*
Y-5889*
Y-5885*
X60351Y-5881*
X60354Y-5875*
X60456Y-5772*
X60460Y-5769*
X60464Y-5768*
X60466Y-5767*
X60470*
X60604*
X60608Y-5768*
X60613Y-5769*
X60620Y-5772*
X60720Y-5875*
X60723Y-5881*
X60724Y-5885*
X60726Y-5889*
Y-5971*
X60725Y-5974*
X60724Y-5976*
Y-5978*
X60723Y-5980*
X60721Y-5984*
X60561Y-6198*
X60797Y-6518*
X60924Y-6324*
X60929Y-6319*
X60936Y-6317*
X60941*
X60946Y-6319*
X60951Y-6322*
X60956Y-6326*
X60959Y-6331*
X60960Y-6336*
Y-6341*
X60957Y-6347*
X60823Y-6551*
X60957Y-6734*
X60960Y-6741*
X60959Y-6749*
X60955Y-6755*
X60950Y-6760*
X60944Y-6763*
X60937Y-6765*
X60934*
X60930Y-6764*
X60927Y-6762*
X60924Y-6758*
X60798Y-6588*
X60688Y-6757*
X60687Y-6759*
X60686Y-6761*
X60683Y-6763*
X60678Y-6766*
X60671Y-6767*
X60403*
X60399Y-6766*
X60394Y-6764*
X60390Y-6761*
X60387Y-6758*
X60285Y-6621*
X60284Y-6617*
X60283Y-6615*
Y-6610*
Y-6517*
Y-6511*
X60284Y-6508*
X60285Y-6504*
X60323Y-6523D02*
Y-6603D01*
X60413Y-6726*
X60661*
X60774Y-6555*
X60536Y-6233*
X60323Y-6523*
X60390Y-5900D02*
Y-5964D01*
X60537Y-6164*
X60686Y-5964*
Y-5900*
X60596Y-5808*
X60480*
X60390Y-5900*
X60567Y-13339D02*
Y-13888D01*
X60566Y-13892*
X60565Y-13895*
X60564Y-13898*
X60562Y-13901*
X60427Y-14010*
X60423Y-14012*
X60422Y-14013*
X60421*
X60419Y-14014*
X60418*
X60417*
X60147*
X60144Y-14013*
X60141Y-14012*
X60138Y-14010*
X60003Y-13901*
X60000Y-13898*
X59998Y-13895*
X59997Y-13892*
X59996Y-13888*
Y-13339*
X59997Y-13335*
X59998Y-13332*
X60000Y-13330*
X60002Y-13329*
X60003Y-13326*
X60138Y-13217*
X60141Y-13216*
X60143Y-13215*
X60144Y-13214*
X60147*
X60417*
X60420*
X60421*
X60422Y-13215*
X60424Y-13216*
X60427Y-13217*
X60562Y-13326*
Y-13329*
X60564Y-13330*
X60565*
Y-13332*
X60566Y-13335*
X60567Y-13339*
X60785Y-13674D02*
Y-13761D01*
X61291*
Y-13674*
X61038Y-13249*
X60785Y-13674*
X61030Y-13214D02*
X61049D01*
X61052Y-13215*
X61054Y-13217*
X61060Y-13221*
X61062Y-13222*
X61321Y-13659*
X61322Y-13662*
Y-13664*
X61323Y-13666*
Y-13668*
Y-13998*
X61322Y-14003*
X61318Y-14008*
X61313Y-14010*
X61307Y-14011*
X61302Y-14010*
X61296Y-14008*
X61293Y-14003*
X61291Y-13998*
Y-13794*
X60785*
Y-13998*
X60783Y-14003*
X60780Y-14008*
X60774Y-14010*
X60768Y-14011*
X60762Y-14010*
X60757Y-14008*
X60754Y-14003*
X60752Y-13998*
Y-13668*
Y-13666*
X60753Y-13664*
X60754Y-13662*
Y-13659*
X61016Y-13222*
X61020Y-13218*
X61025Y-13217*
X61028Y-13215*
X61030Y-13214*
X61403Y-7746D02*
X61409Y-7745D01*
X61414Y-7742*
X61416Y-7736*
X61417Y-7730*
X61416Y-7724*
X61414Y-7719*
X61409Y-7715*
X61403Y-7714*
X60863*
X60858Y-7715*
X60853Y-7719*
X60849Y-7724*
X60847Y-7730*
Y-8498*
X60849Y-8503*
X60853Y-8508*
X60858Y-8512*
X60863Y-8514*
X61403*
X61409Y-8512*
X61414Y-8509*
X61416Y-8503*
X61417Y-8498*
X61416Y-8491*
X61414Y-8486*
X61409Y-8482*
X61403Y-8480*
X60881*
Y-8130*
X61243*
X61249Y-8128*
X61254Y-8124*
X61256Y-8119*
X61257Y-8114*
X61256Y-8108*
X61254Y-8102*
X61249Y-8098*
X61243*
X60881*
Y-7746*
X61403*
X61542Y-13246D02*
X61924D01*
X62049Y-13347*
Y-13880*
X61924Y-13981*
X61542*
Y-13246*
X61637Y-7746D02*
X62019D01*
X62144Y-7847*
Y-7996*
X62019Y-8098*
X61637*
Y-7746*
X61940Y-13217D02*
X61936Y-13215D01*
X61933Y-13214*
X61930*
X61525*
X61519Y-13215*
X61514Y-13219*
X61510Y-13224*
X61509Y-13230*
Y-13998*
X61510Y-14004*
X61514Y-14008*
X61519Y-14013*
X61525Y-14014*
X61930*
X61933*
X61934Y-14013*
X61936Y-14012*
X61940Y-14010*
X62075Y-13901*
X62078Y-13898*
Y-13896*
X62080Y-13892*
X62081Y-13888*
Y-13339*
X62080Y-13335*
X62078Y-13333*
Y-13330*
X62076Y-13329*
X62075Y-13327*
X61940Y-13217*
X61942Y-5808D02*
X62419D01*
X62575Y-5934*
Y-6600*
X62419Y-6726*
X61942*
Y-5808*
X62170Y-8018D02*
X62173Y-8016D01*
X62174Y-8012*
X62176Y-8008*
Y-8004*
Y-7839*
Y-7835*
X62174Y-7833*
Y-7830*
X62173*
X62172Y-7829*
X62170Y-7827*
X62034Y-7717*
X62030Y-7715*
X62027Y-7714*
X62024*
X61621*
X61614Y-7715*
X61609Y-7719*
X61605Y-7724*
X61603Y-7730*
Y-8498*
X61605Y-8504*
X61609Y-8508*
X61614Y-8510*
X61619Y-8511*
X61626Y-8510*
X61631Y-8508*
X61635Y-8504*
X61637Y-8498*
Y-8130*
X62013*
X62144Y-8502*
X62147Y-8508*
X62153Y-8511*
X62159Y-8512*
X62164Y-8510*
X62169Y-8508*
X62173Y-8504*
X62175Y-8498*
X62174Y-8492*
X62042Y-8119*
X62170Y-8018*
X62407Y-14010D02*
X62273Y-13901D01*
X62269Y-13898*
X62268Y-13895*
X62266Y-13892*
Y-13888*
Y-13339*
Y-13335*
X62268Y-13332*
X62270Y-13330*
Y-13329*
X62272Y-13326*
X62407Y-13217*
X62410Y-13216*
X62412Y-13215*
X62413Y-13214*
X62416*
X62686*
X62690*
X62691Y-13215*
X62694Y-13216*
X62696Y-13217*
X62831Y-13326*
X62834Y-13330*
X62836Y-13337*
X62835Y-13342*
X62834Y-13346*
X62831Y-13349*
X62827Y-13352*
X62823Y-13354*
X62819Y-13355*
X62815*
X62812Y-13353*
X62680Y-13246*
X62422*
X62298Y-13347*
Y-13880*
X62422Y-13981*
X62680*
X62812Y-13874*
X62815Y-13873*
X62819Y-13872*
X62823Y-13873*
X62827Y-13875*
X62831Y-13878*
X62834Y-13882*
X62835Y-13887*
X62836Y-13892*
X62834Y-13897*
X62831Y-13901*
X62696Y-14010*
X62693Y-14012*
X62692Y-14013*
X62690*
X62689Y-14014*
X62688*
X62686*
X62416*
X62413Y-14013*
X62410Y-14012*
X62407Y-14010*
X62439Y-5771D02*
X62434Y-5769D01*
X62430Y-5768*
X62426Y-5767*
X61920*
X61913Y-5769*
X61907Y-5774*
X61902Y-5780*
X61900Y-5787*
Y-6747*
X61902Y-6755*
X61907Y-6760*
X61913Y-6766*
X61920Y-6767*
X62426*
X62430*
X62432Y-6766*
X62434Y-6765*
X62439Y-6763*
X62608Y-6626*
X62611Y-6622*
X62612Y-6620*
X62614Y-6615*
X62615Y-6610*
Y-5924*
X62614Y-5919*
X62612Y-5916*
Y-5913*
X62611Y-5912*
X62609Y-5911*
X62608Y-5909*
X62439Y-5771*
X62915Y-7746D02*
X62921Y-7745D01*
X62926Y-7742*
X62928Y-7736*
X62929Y-7730*
X62928Y-7724*
X62926Y-7719*
X62921Y-7715*
X62915Y-7714*
X62375*
X62370Y-7715*
X62365Y-7719*
X62361Y-7724*
X62359Y-7730*
Y-8498*
X62361Y-8503*
X62365Y-8508*
X62370Y-8512*
X62375Y-8514*
X62915*
X62921Y-8512*
X62926Y-8509*
X62928Y-8503*
X62929Y-8498*
X62928Y-8491*
X62926Y-8486*
X62921Y-8482*
X62915Y-8480*
X62393*
Y-8130*
X62755*
X62761Y-8128*
X62766Y-8124*
X62768Y-8119*
X62769Y-8114*
X62768Y-8108*
X62766Y-8102*
X62761Y-8098*
X62755*
X62393*
Y-7746*
X62915*
X63053Y-13674D02*
Y-13761D01*
X63559*
Y-13674*
X63306Y-13249*
X63053Y-13674*
X63298Y-13214D02*
X63317D01*
X63320Y-13215*
X63322Y-13217*
X63328Y-13221*
X63330Y-13222*
X63589Y-13659*
X63590Y-13662*
Y-13664*
X63591Y-13666*
Y-13668*
Y-13998*
X63590Y-14003*
X63586Y-14008*
X63581Y-14010*
X63575Y-14011*
X63570Y-14010*
X63564Y-14008*
X63561Y-14003*
X63559Y-13998*
Y-13794*
X63053*
Y-13998*
X63051Y-14003*
X63048Y-14008*
X63042Y-14010*
X63036Y-14011*
X63030Y-14010*
X63025Y-14008*
X63022Y-14003*
X63020Y-13998*
Y-13668*
Y-13666*
X63021Y-13664*
X63022Y-13662*
Y-13659*
X63284Y-13222*
X63288Y-13218*
X63293Y-13217*
X63296Y-13215*
X63298Y-13214*
X63540Y-5808D02*
X63547Y-5806D01*
X63553Y-5802*
X63556Y-5795*
X63557Y-5788*
X63556Y-5780*
X63553Y-5774*
X63547Y-5769*
X63540Y-5767*
X62865*
X62858Y-5769*
X62852Y-5774*
X62847Y-5780*
X62845Y-5787*
Y-6747*
X62847Y-6754*
X62852Y-6760*
X62858Y-6765*
X62865Y-6767*
X63540*
X63547Y-6765*
X63553Y-6761*
X63556Y-6754*
X63557Y-6747*
X63556Y-6739*
X63553Y-6732*
X63547Y-6727*
X63540Y-6725*
X62887*
Y-6287*
X63340*
X63347Y-6285*
X63353Y-6280*
X63356Y-6274*
X63357Y-6267*
X63356Y-6260*
X63353Y-6253*
X63347Y-6248*
X63340Y-6247*
X62887*
Y-5808*
X63540*
X63671Y-7746D02*
X63677Y-7745D01*
X63682Y-7742*
X63684Y-7736*
X63685Y-7730*
X63684Y-7724*
X63682Y-7719*
X63677Y-7715*
X63671Y-7714*
X63131*
X63126Y-7715*
X63121Y-7719*
X63117Y-7724*
X63115Y-7730*
Y-8498*
X63117Y-8503*
X63121Y-8508*
X63126Y-8510*
X63131Y-8511*
X63138Y-8510*
X63143Y-8508*
X63147Y-8503*
X63149Y-8498*
Y-8094*
X63511*
X63517Y-8093*
X63522Y-8089*
X63524Y-8083*
X63525Y-8078*
X63524Y-8072*
X63522Y-8066*
X63517Y-8062*
X63511Y-8061*
X63149*
Y-7746*
X63671*
X64190Y-6767D02*
X64163D01*
X64157Y-6766*
X64152Y-6763*
X64147Y-6759*
X64145Y-6753*
X63820Y-5794*
X63819Y-5786*
X63822Y-5780*
X63828Y-5775*
X63835Y-5771*
X63842Y-5770*
X63849Y-5771*
X63855Y-5774*
X63859Y-5781*
X64176Y-6724*
X64495Y-5781*
X64499Y-5774*
X64505Y-5771*
X64512Y-5770*
X64519Y-5771*
X64526Y-5775*
X64531Y-5780*
X64533Y-5786*
X64532Y-5794*
X64209Y-6753*
X64206Y-6759*
X64200Y-6763*
X64196Y-6766*
X64190Y-6767*
X64208Y-13600D02*
X64343Y-13710D01*
X64346Y-13713*
Y-13717*
X64347Y-13719*
X64348Y-13722*
X64349Y-13723*
Y-13888*
X64348Y-13890*
X64346Y-13896*
Y-13898*
X64343Y-13901*
X64209Y-14010*
X64205Y-14012*
X64204Y-14013*
X64202*
X64201Y-14014*
X64200*
X64198*
X63929*
X63926Y-14013*
X63922Y-14012*
X63919Y-14010*
X63785Y-13901*
X63781Y-13897*
X63780Y-13894*
Y-13892*
X63781Y-13886*
X63784Y-13881*
X63787Y-13877*
X63792Y-13874*
X63798Y-13873*
X63803Y-13874*
X63934Y-13981*
X64192*
X64317Y-13880*
Y-13731*
X64192Y-13630*
X63929*
X63926*
X63922Y-13629*
X63919Y-13627*
X63785Y-13518*
X63783Y-13517*
X63782Y-13515*
X63780Y-13513*
X63778Y-13507*
Y-13504*
Y-13339*
Y-13335*
X63780Y-13332*
X63782Y-13330*
X63783Y-13329*
X63785Y-13326*
X63919Y-13217*
X63922Y-13216*
X63925Y-13215*
X63926Y-13214*
X63929*
X64198*
X64202*
X64203Y-13215*
X64206Y-13216*
X64208Y-13217*
X64309Y-13299*
X64313Y-13303*
X64314Y-13308*
Y-13314*
X64311Y-13319*
X64307Y-13323*
X64302Y-13326*
X64295Y-13327*
X64290Y-13326*
X64194Y-13246*
X63934*
X63810Y-13347*
Y-13496*
X63934Y-13598*
X64198*
X64202*
X64205Y-13599*
X64208Y-13600*
X64803Y-13998D02*
X64804Y-14003D01*
X64808Y-14008*
X64814Y-14010*
X64819Y-14011*
X64825Y-14010*
X64830Y-14008*
X64834Y-14003*
X64835Y-13998*
Y-13246*
X65089*
X65094Y-13245*
X65099Y-13242*
X65102Y-13236*
Y-13230*
Y-13224*
X65099Y-13218*
X65094Y-13214*
X65089*
X64549*
X64543*
X64539Y-13218*
X64536Y-13224*
X64535Y-13230*
X64536Y-13236*
X64539Y-13242*
X64543Y-13245*
X64549Y-13246*
X64803*
Y-13998*
X65430Y-5808D02*
X65437Y-5806D01*
X65443Y-5802*
X65446Y-5795*
X65447Y-5788*
X65446Y-5780*
X65443Y-5774*
X65437Y-5769*
X65430Y-5767*
X64755*
X64748Y-5769*
X64742Y-5774*
X64737Y-5780*
X64735Y-5787*
Y-6747*
X64737Y-6754*
X64742Y-6760*
X64748Y-6765*
X64755Y-6767*
X65430*
X65437Y-6765*
X65443Y-6761*
X65446Y-6754*
X65447Y-6747*
X65446Y-6739*
X65443Y-6732*
X65437Y-6727*
X65430Y-6725*
X64777*
Y-6287*
X65230*
X65237Y-6285*
X65243Y-6280*
X65246Y-6274*
X65247Y-6267*
X65246Y-6260*
X65243Y-6253*
X65237Y-6248*
X65230Y-6247*
X64777*
Y-5808*
X65430*
X65680Y-6747D02*
X65682Y-6755D01*
X65687Y-6760*
X65693Y-6766*
X65700Y-6767*
X66375*
X66382Y-6766*
X66388Y-6761*
X66391Y-6754*
X66392Y-6747*
X66391Y-6739*
X66388Y-6732*
X66382Y-6728*
X66375Y-6726*
X65722*
Y-5787*
X65720Y-5780*
X65715Y-5774*
X65708Y-5771*
X65700Y-5770*
X65693Y-5771*
X65687Y-5774*
X65682Y-5780*
X65680Y-5787*
Y-6747*
X65717Y-13246D02*
X65722Y-13245D01*
X65727Y-13242*
X65730Y-13236*
Y-13230*
Y-13224*
X65727Y-13218*
X65722Y-13214*
X65717*
X65405*
X65398*
X65395Y-13218*
X65393Y-13224*
X65392Y-13230*
X65393Y-13236*
X65395Y-13242*
X65398Y-13245*
X65405Y-13246*
X65545*
Y-13980*
X65405*
X65398Y-13982*
X65395Y-13986*
X65393Y-13991*
X65392Y-13998*
X65393Y-14003*
X65395Y-14009*
X65398Y-14012*
X65405Y-14014*
X65717*
X65722Y-14012*
X65727Y-14009*
X65730Y-14003*
Y-13998*
Y-13991*
X65727Y-13986*
X65722Y-13982*
X65717Y-13980*
X65576*
Y-13246*
X65717*
X65743Y-11236D02*
Y-9256D01*
X65747Y-9242*
X65754Y-9231*
X65766Y-9224*
X65779Y-9222*
X65793Y-9224*
X65806Y-9231*
X65813Y-9242*
X65817Y-9256*
Y-9533*
X66119Y-9226*
X66126Y-9220*
X66134Y-9218*
X66137Y-9217*
X66144*
X66630*
X66638Y-9218*
X66645Y-9220*
X66656Y-9226*
X67021Y-9598*
X67025Y-9611*
X67026Y-9616*
X67028Y-9625*
Y-10122*
Y-10127*
X67026Y-10131*
X67025Y-10138*
X67021Y-10149*
X66656Y-10520*
X66645Y-10527*
X66638Y-10529*
X66630Y-10531*
X66144*
X66137*
X66134Y-10529*
X66126Y-10527*
X66117Y-10520*
X65817Y-10216*
Y-11236*
X65813Y-11249*
X65806Y-11260*
X65793Y-11265*
X65779Y-11267*
X65766Y-11265*
X65754Y-11260*
X65747Y-11249*
X65743Y-11236*
X65817Y-9641D02*
Y-10104D01*
X66161Y-10457*
X66612*
X66956Y-10104*
Y-9643*
X66612Y-9290*
X66161*
X65817Y-9641*
X66017Y-13998D02*
X66018Y-14004D01*
X66022Y-14008*
X66027Y-14010*
X66033Y-14011*
X66039Y-14010*
X66045Y-14008*
X66049Y-14004*
X66050Y-13998*
Y-13281*
X66560Y-14007*
X66562Y-14010*
X66566Y-14012*
X66570*
X66575Y-14010*
X66581Y-14009*
X66586Y-14006*
X66588Y-14002*
X66589Y-13998*
Y-13230*
X66587Y-13224*
X66583Y-13219*
X66578Y-13217*
X66573Y-13216*
X66567Y-13217*
X66562Y-13219*
X66558Y-13224*
X66557Y-13230*
Y-13946*
X66046Y-13221*
X66043Y-13218*
X66040Y-13216*
X66036*
X66032Y-13217*
X66026Y-13218*
X66021Y-13220*
X66018Y-13224*
X66017Y-13230*
Y-13998*
X66667Y-5934D02*
Y-6600D01*
X66821Y-6726*
X67144*
X67300Y-6600*
Y-5934*
X67144Y-5808*
X66821*
X66667Y-5934*
X67205Y-13217D02*
X67339Y-13326D01*
X67343Y-13330*
X67344Y-13337*
X67343Y-13342*
X67342Y-13346*
X67339Y-13349*
X67335Y-13352*
X67331Y-13354*
X67327Y-13355*
X67323*
X67320Y-13353*
X67189Y-13246*
X66930*
X66806Y-13347*
Y-13880*
X66930Y-13981*
X67188*
X67313Y-13880*
Y-13684*
X67194*
X67188Y-13682*
X67184Y-13679*
X67181Y-13674*
X67180Y-13668*
X67181Y-13662*
X67184Y-13658*
X67188Y-13654*
X67194Y-13652*
X67329*
X67335Y-13654*
X67340Y-13657*
X67344Y-13662*
X67345Y-13668*
Y-13888*
X67344Y-13892*
X67342Y-13894*
Y-13898*
X67339Y-13901*
X67205Y-14010*
X67201Y-14012*
X67200Y-14013*
X67198*
X67197Y-14014*
X67196*
X67194*
X66925*
X66922Y-14013*
X66918Y-14012*
X66915Y-14010*
X66781Y-13901*
X66779Y-13899*
X66778Y-13898*
X66776Y-13896*
X66774Y-13890*
Y-13888*
Y-13339*
Y-13336*
X66776Y-13334*
X66778Y-13330*
X66781Y-13326*
X66915Y-13217*
X66918Y-13216*
X66921Y-13215*
X66922Y-13214*
X66925*
X67194*
X67198*
X67199Y-13215*
X67202Y-13216*
X67205Y-13217*
X67340Y-5924D02*
Y-6610D01*
X67339Y-6615*
X67337Y-6619*
X67336Y-6623*
X67333Y-6626*
X67165Y-6763*
X67160Y-6765*
X67159Y-6766*
X67157*
X67155Y-6767*
X67154*
X67152*
X66815*
X66811Y-6766*
X66807Y-6765*
X66803Y-6763*
X66635Y-6626*
X66631Y-6623*
X66629Y-6619*
X66627Y-6615*
X66626Y-6610*
Y-5924*
X66627Y-5919*
X66629Y-5915*
X66631Y-5913*
X66633Y-5911*
X66635Y-5908*
X66803Y-5771*
X66807Y-5770*
X66810Y-5769*
X66811Y-5768*
X66815Y-5767*
X67152*
X67156Y-5768*
X67157*
X67158Y-5769*
X67161Y-5770*
X67165Y-5771*
X67333Y-5908*
X67334Y-5911*
X67336Y-5912*
X67337Y-5913*
Y-5915*
X67339Y-5919*
X67340Y-5924*
X67612Y-5808D02*
X68090D01*
X68246Y-5934*
Y-6120*
X68090Y-6247*
X67612*
Y-5808*
X67629Y-9760D02*
Y-10293D01*
X67791Y-10457*
X68418*
X68578Y-10293*
Y-9760*
X68526Y-9605*
X67678*
X67629Y-9760*
Y-8970D02*
Y-9379D01*
X67678Y-9533*
X68526*
X68578Y-9379*
Y-8970*
X68418Y-8804*
X67791*
X67629Y-8970*
X68242Y-14010D02*
X68107Y-13901D01*
X68103Y-13898*
X68102Y-13895*
X68101Y-13892*
X68100Y-13888*
Y-13339*
X68101Y-13335*
X68102Y-13332*
X68104Y-13330*
X68105Y-13329*
X68106Y-13326*
X68242Y-13217*
X68244Y-13216*
X68246Y-13215*
X68247Y-13214*
X68250*
X68520*
X68524*
X68526Y-13215*
X68528Y-13216*
X68530Y-13217*
X68666Y-13326*
X68669Y-13330*
X68670Y-13337*
Y-13342*
X68668Y-13346*
X68666Y-13349*
X68662Y-13352*
X68658Y-13354*
X68654Y-13355*
X68650*
X68646Y-13353*
X68514Y-13246*
X68256*
X68133Y-13347*
Y-13880*
X68256Y-13981*
X68514*
X68646Y-13874*
X68650Y-13873*
X68654Y-13872*
X68658Y-13873*
X68662Y-13875*
X68666Y-13878*
X68668Y-13882*
X68670Y-13887*
Y-13892*
X68669Y-13897*
X68666Y-13901*
X68530Y-14010*
X68527Y-14012*
X68526Y-14013*
X68524*
X68523Y-14014*
X68522*
X68520*
X68250*
X68247Y-14013*
X68244Y-14012*
X68242Y-14010*
X68279Y-6147D02*
X68282Y-6145D01*
X68283Y-6140*
X68286Y-6135*
Y-6130*
Y-5924*
Y-5919*
X68283Y-5916*
Y-5913*
X68282Y-5912*
X68281Y-5911*
X68279Y-5909*
X68109Y-5771*
X68104Y-5769*
X68100Y-5768*
X68096Y-5767*
X67592*
X67583Y-5769*
X67577Y-5774*
X67572Y-5780*
X67570Y-5787*
Y-6747*
X67572Y-6755*
X67577Y-6760*
X67583Y-6763*
X67590Y-6764*
X67598Y-6763*
X67605Y-6760*
X67610Y-6755*
X67612Y-6747*
Y-6287*
X68096*
X68103Y-6286*
X68106Y-6285*
X68107*
X68109Y-6284*
X68279Y-6147*
X68648Y-9395D02*
X68591Y-9568D01*
X68648Y-9740*
Y-9746*
X68650Y-9753*
Y-10309*
Y-10315*
X68648Y-10320*
X68646Y-10327*
X68639Y-10334*
X68459Y-10520*
X68452Y-10527*
X68441Y-10529*
X68434Y-10531*
X67773*
X67768*
X67763Y-10529*
X67755Y-10527*
X67748Y-10520*
X67568Y-10334*
X67561Y-10327*
X67557Y-10320*
Y-10309*
Y-9753*
Y-9746*
Y-9742*
X67559Y-9740*
X67617Y-9568*
X67559Y-9395*
X67557Y-9393*
Y-9382*
Y-8950*
Y-8943*
X67561Y-8934*
X67568Y-8925*
X67748Y-8740*
X67755Y-8734*
X67763Y-8732*
X67768Y-8731*
X67773*
X68434*
X68441Y-8732*
X68452Y-8734*
X68459Y-8740*
X68639Y-8925*
X68646Y-8936*
X68648Y-8943*
X68650Y-8950*
Y-9382*
Y-9389*
X68648Y-9393*
Y-9395*
X68887Y-13347D02*
Y-13880D01*
X69010Y-13981*
X69269*
X69394Y-13880*
Y-13347*
X69269Y-13246*
X69010*
X68887Y-13347*
X69190Y-6747D02*
X69191Y-6755D01*
X69196Y-6760*
X69203Y-6763*
X69210Y-6764*
X69217Y-6763*
X69223Y-6760*
X69228Y-6755*
X69230Y-6747*
Y-5791*
Y-5788*
Y-5787*
X69229Y-5780*
X69226Y-5775*
X69220Y-5772*
X69213Y-5771*
X69206Y-5770*
X69201Y-5771*
X69196Y-5773*
X69193Y-5777*
X68873Y-6296*
X68554Y-5777*
X68549Y-5772*
X68545Y-5770*
X68539*
X68534Y-5771*
X68526Y-5772*
X68520Y-5775*
X68517Y-5780*
X68515Y-5787*
Y-5788*
Y-5791*
Y-6747*
X68517Y-6755*
X68522Y-6760*
X68528Y-6763*
X68535Y-6764*
X68543Y-6763*
X68550Y-6760*
X68555Y-6755*
X68557Y-6747*
Y-5860*
X68855Y-6347*
X68859Y-6351*
X68863Y-6354*
X68868Y-6355*
X68873Y-6354*
X68878Y-6355*
X68883Y-6354*
X68887Y-6351*
X68891Y-6347*
X69190Y-5860*
Y-6747*
X69199Y-9771D02*
Y-10230D01*
X69476Y-10457*
X70058*
X70338Y-10230*
Y-9771*
X70058Y-9542*
X69476*
X69199Y-9771*
X69426Y-13339D02*
Y-13888D01*
X69425Y-13892*
X69423Y-13895*
X69422Y-13898*
X69420Y-13901*
X69286Y-14010*
X69282Y-14012*
X69281Y-14013*
X69279*
X69278Y-14014*
X69277*
X69275*
X69006*
X69002Y-14013*
X68999Y-14012*
X68996Y-14010*
X68862Y-13901*
X68858Y-13898*
X68857Y-13895*
X68855Y-13892*
X68854Y-13888*
Y-13339*
X68855Y-13335*
X68857Y-13332*
X68858Y-13330*
X68860Y-13329*
X68862Y-13326*
X68996Y-13217*
X68999Y-13216*
X69002Y-13215*
Y-13214*
X69006*
X69275*
X69278*
X69279*
X69280Y-13215*
X69282Y-13216*
X69286Y-13217*
X69420Y-13326*
X69421Y-13329*
X69422Y-13330*
X69423*
Y-13332*
X69425Y-13335*
X69426Y-13339*
X69643Y-13246D02*
X70026D01*
X70150Y-13347*
Y-13496*
X70026Y-13598*
X69643*
Y-13246*
X70095Y-8738D02*
X70398Y-8984D01*
X70407Y-8993*
X70409Y-9008*
X70407Y-9019*
X70403Y-9028*
X70398Y-9035*
X70389Y-9042*
X70380Y-9047*
X70371Y-9049*
X70362*
X70355Y-9044*
X70059Y-8804*
X69476*
X69199Y-9031*
Y-9677*
X69444Y-9478*
X69451Y-9476*
X69455Y-9474*
X69456*
Y-9472*
X69465Y-9470*
X70072*
X70079Y-9472*
Y-9474*
X70083*
X70088Y-9476*
X70094Y-9478*
X70398Y-9722*
X70400Y-9728*
X70403Y-9730*
X70405Y-9731*
Y-9735*
X70409Y-9748*
X70410Y-9753*
Y-10248*
X70409Y-10257*
X70405Y-10264*
X70403Y-10271*
X70398Y-10277*
X70095Y-10523*
X70086Y-10527*
X70085Y-10529*
X70081*
X70077Y-10531*
X70076*
X70072*
X69465*
X69458Y-10529*
X69451Y-10527*
X69444Y-10523*
X69141Y-10277*
X69138Y-10273*
X69134Y-10271*
X69131Y-10266*
X69127Y-10253*
X69125Y-10248*
Y-9013*
X69127Y-9004*
X69131Y-8997*
X69134Y-8993*
X69138Y-8990*
X69141Y-8984*
X69444Y-8738*
X69451Y-8736*
X69456Y-8734*
X69458Y-8732*
X69465Y-8731*
X70072*
X70079Y-8732*
X70081*
X70083Y-8734*
X70088Y-8736*
X70095Y-8738*
X70155Y-5808D02*
X70162Y-5806D01*
X70168Y-5802*
X70171Y-5795*
X70172Y-5788*
X70171Y-5780*
X70168Y-5774*
X70162Y-5769*
X70155Y-5767*
X69480*
X69473Y-5769*
X69467Y-5774*
X69462Y-5780*
X69460Y-5787*
Y-6747*
X69462Y-6754*
X69467Y-6760*
X69473Y-6765*
X69480Y-6767*
X70155*
X70162Y-6765*
X70168Y-6761*
X70171Y-6754*
X70172Y-6747*
X70171Y-6739*
X70168Y-6732*
X70162Y-6727*
X70155Y-6725*
X69502*
Y-6287*
X69955*
X69962Y-6285*
X69968Y-6280*
X69971Y-6274*
X69972Y-6267*
X69971Y-6260*
X69968Y-6253*
X69962Y-6248*
X69955Y-6247*
X69502*
Y-5808*
X70155*
X70177Y-13518D02*
X70179Y-13516D01*
X70180Y-13512*
X70182Y-13508*
Y-13504*
Y-13339*
Y-13335*
X70180Y-13333*
Y-13330*
X70179*
X70178Y-13329*
X70177Y-13327*
X70041Y-13217*
X70037Y-13215*
X70034Y-13214*
X70030*
X69627*
X69620Y-13215*
X69615Y-13219*
X69611Y-13224*
X69610Y-13230*
Y-13998*
X69611Y-14004*
X69615Y-14008*
X69620Y-14010*
X69626Y-14011*
X69632Y-14010*
X69638Y-14008*
X69642Y-14004*
X69643Y-13998*
Y-13630*
X70019*
X70150Y-14002*
X70154Y-14008*
X70159Y-14011*
X70166Y-14012*
X70170Y-14010*
X70175Y-14008*
X70179Y-14004*
X70182Y-13998*
X70180Y-13992*
X70049Y-13619*
X70177Y-13518*
X70399Y-13246D02*
X70782D01*
X70906Y-13347*
Y-13496*
X70782Y-13598*
X70399*
Y-13246*
X70405Y-6747D02*
X70407Y-6755D01*
X70412Y-6760*
X70418Y-6763*
X70425Y-6764*
X70433Y-6763*
X70440Y-6760*
X70445Y-6755*
X70447Y-6747*
Y-5851*
X71084Y-6759*
X71087Y-6763*
X71092Y-6765*
X71097*
X71103Y-6763*
X71110Y-6761*
X71116Y-6758*
X71119Y-6753*
X71120Y-6747*
Y-5787*
X71118Y-5780*
X71113Y-5774*
X71107Y-5771*
X71100Y-5770*
X71093Y-5771*
X71086Y-5774*
X71081Y-5780*
X71080Y-5787*
Y-6683*
X70442Y-5776*
X70438Y-5772*
X70434Y-5770*
X70429*
X70424Y-5771*
X70416Y-5772*
X70410Y-5775*
X70407Y-5780*
X70405Y-5787*
Y-6747*
X70900Y-9031D02*
Y-9488D01*
X71177Y-9717*
X71759*
X72039Y-9488*
Y-9031*
X71759Y-8804*
X71177*
X70900Y-9031*
X70933Y-13518D02*
X70935Y-13516D01*
X70936Y-13512*
X70938Y-13508*
Y-13504*
Y-13339*
Y-13335*
X70936Y-13333*
Y-13330*
X70935*
X70934Y-13329*
X70933Y-13327*
X70797Y-13217*
X70793Y-13215*
X70790Y-13214*
X70786*
X70383*
X70376Y-13215*
X70371Y-13219*
X70367Y-13224*
X70366Y-13230*
Y-13998*
X70367Y-14004*
X70371Y-14008*
X70376Y-14010*
X70382Y-14011*
X70388Y-14010*
X70394Y-14008*
X70398Y-14004*
X70399Y-13998*
Y-13630*
X70786*
X70792Y-13629*
X70794Y-13628*
X70795*
X70797Y-13627*
X70933Y-13518*
X71145Y-10523D02*
X70842Y-10277D01*
X70833Y-10268*
X70832Y-10262*
Y-10257*
X70833Y-10244*
X70841Y-10232*
X70848Y-10223*
X70859Y-10216*
X70871Y-10214*
X70884Y-10217*
X71177Y-10457*
X71759*
X72039Y-10230*
Y-9584*
X71795Y-9782*
X71787Y-9785*
X71786Y-9787*
X71780Y-9789*
X71773*
X71166*
X71159*
X71148Y-9785*
X71145Y-9782*
X70842Y-9537*
X70839Y-9535*
X70835Y-9532*
X70832Y-9526*
X70828Y-9514*
X70826Y-9506*
Y-9013*
X70828Y-9004*
X70832Y-8997*
X70835Y-8992*
X70839Y-8990*
X70842Y-8984*
X71145Y-8738*
X71152Y-8736*
X71157Y-8734*
X71159Y-8732*
X71166Y-8731*
X71773*
X71780Y-8732*
X71782*
X71784Y-8734*
X71789Y-8736*
X71796Y-8738*
X72099Y-8984*
X72104Y-8993*
X72106Y-9001*
X72110Y-9006*
X72111Y-9013*
Y-10248*
X72110Y-10253*
X72106Y-10266*
X72104Y-10270*
X72099Y-10277*
X71796Y-10523*
X71787Y-10527*
X71786Y-10529*
X71782*
X71778Y-10531*
X71777*
X71773*
X71166*
X71159Y-10529*
X71152Y-10527*
X71145Y-10523*
X71155Y-13347D02*
Y-13880D01*
X71278Y-13981*
X71537*
X71662Y-13880*
Y-13347*
X71537Y-13246*
X71278*
X71155Y-13347*
X71688Y-6747D02*
X71689Y-6754D01*
X71694Y-6760*
X71701Y-6763*
X71708Y-6764*
X71715Y-6763*
X71721Y-6760*
X71726Y-6754*
X71728Y-6747*
Y-5808*
X72045*
X72052Y-5806*
X72058Y-5802*
X72061Y-5795*
X72062Y-5788*
X72061Y-5780*
X72058Y-5773*
X72052Y-5768*
X72045Y-5767*
X71370*
X71363Y-5768*
X71358Y-5773*
X71354Y-5780*
X71353Y-5788*
X71354Y-5795*
X71358Y-5802*
X71363Y-5806*
X71370Y-5808*
X71688*
Y-6747*
X71694Y-13339D02*
Y-13888D01*
X71693Y-13892*
X71691Y-13895*
X71690Y-13898*
X71688Y-13901*
X71554Y-14010*
X71550Y-14012*
X71549Y-14013*
X71547*
X71546Y-14014*
X71545*
X71543*
X71274*
X71270Y-14013*
X71267Y-14012*
X71264Y-14010*
X71130Y-13901*
X71126Y-13898*
X71125Y-13895*
X71123Y-13892*
X71122Y-13888*
Y-13339*
X71123Y-13335*
X71125Y-13332*
X71126Y-13330*
X71128Y-13329*
X71130Y-13326*
X71264Y-13217*
X71267Y-13216*
X71270Y-13215*
Y-13214*
X71274*
X71543*
X71546*
X71547*
X71548Y-13215*
X71550Y-13216*
X71554Y-13217*
X71688Y-13326*
X71689Y-13329*
X71690Y-13330*
X71691*
Y-13332*
X71693Y-13335*
X71694Y-13339*
X71911Y-13246D02*
X72294D01*
X72418Y-13347*
Y-13496*
X72294Y-13598*
X71911*
Y-13246*
X72445Y-13518D02*
X72447Y-13516D01*
X72448Y-13512*
X72450Y-13508*
Y-13504*
Y-13339*
Y-13335*
X72448Y-13333*
Y-13330*
X72447*
X72446Y-13329*
X72445Y-13327*
X72309Y-13217*
X72305Y-13215*
X72302Y-13214*
X72298*
X71895*
X71888Y-13215*
X71883Y-13219*
X71879Y-13224*
X71878Y-13230*
Y-13998*
X71879Y-14004*
X71883Y-14008*
X71888Y-14010*
X71894Y-14011*
X71900Y-14010*
X71906Y-14008*
X71910Y-14004*
X71911Y-13998*
Y-13630*
X72287*
X72418Y-14002*
X72422Y-14008*
X72427Y-14011*
X72434Y-14012*
X72438Y-14010*
X72443Y-14008*
X72447Y-14004*
X72450Y-13998*
X72448Y-13992*
X72317Y-13619*
X72445Y-13518*
X72570Y-10469D02*
X73800D01*
X73812Y-10471*
X73821Y-10478*
X73827Y-10487*
Y-10498*
X73825Y-10513*
X73821Y-10522*
X73812Y-10529*
X73800Y-10531*
X72570*
X72558Y-10529*
X72549Y-10522*
X72543Y-10513*
X72542Y-10498*
X72543Y-10487*
X72547Y-10478*
X72556Y-10471*
X72570Y-10469*
X72667Y-13674D02*
Y-13761D01*
X73174*
Y-13674*
X72921Y-13249*
X72667Y-13674*
X72913Y-13214D02*
X72931D01*
X72934Y-13215*
X72937Y-13217*
X72942Y-13221*
X72945Y-13222*
X73203Y-13659*
X73204Y-13662*
X73205Y-13664*
X73206Y-13666*
Y-13668*
Y-13998*
X73204Y-14003*
X73201Y-14008*
X73195Y-14010*
X73190Y-14011*
X73184Y-14010*
X73178Y-14008*
X73175Y-14003*
X73174Y-13998*
Y-13794*
X72667*
Y-13998*
X72666Y-14003*
X72662Y-14008*
X72657Y-14010*
X72650Y-14011*
X72645Y-14010*
X72639Y-14008*
X72636Y-14003*
X72634Y-13998*
Y-13668*
Y-13666*
X72635Y-13664*
X72636Y-13662*
X72637Y-13659*
X72898Y-13222*
X72902Y-13218*
X72907Y-13217*
X72910Y-13215*
X72913Y-13214*
X73662Y-13998D02*
Y-14003D01*
X73666Y-14008*
X73672Y-14010*
X73678Y-14011*
X73683Y-14010*
X73688Y-14008*
X73692Y-14003*
X73694Y-13998*
Y-13246*
X73947*
X73953Y-13245*
X73958Y-13242*
X73960Y-13236*
X73961Y-13230*
X73960Y-13224*
X73958Y-13218*
X73953Y-13214*
X73947*
X73407*
X73402*
X73398Y-13218*
X73394Y-13224*
Y-13230*
Y-13236*
X73398Y-13242*
X73402Y-13245*
X73407Y-13246*
X73662*
Y-13998*
X74484Y-10457D02*
X74469Y-10460D01*
X74462Y-10468*
X74457Y-10480*
X74455Y-10495*
X74457Y-10507*
X74462Y-10520*
X74469Y-10529*
X74484Y-10531*
X75186*
X75198Y-10529*
X75209Y-10520*
X75215Y-10507*
X75216Y-10495*
X75215Y-10480*
X75209Y-10468*
X75198Y-10460*
X75186Y-10457*
X74869*
Y-8767*
X74867Y-8754*
X74862Y-8745*
X74853Y-8740*
X74840Y-8738*
X74831Y-8736*
X74822*
X74815Y-8740*
X74808Y-8747*
X74457Y-9240*
X74451Y-9253*
Y-9265*
X74457Y-9276*
X74466Y-9285*
X74477Y-9292*
X74489Y-9296*
X74496*
X74502Y-9294*
X74511Y-9283*
X74799Y-8880*
Y-10457*
X74484*
X74575Y-13246D02*
X74581Y-13245D01*
X74586Y-13242*
X74588Y-13236*
X74589Y-13230*
X74588Y-13224*
X74586Y-13218*
X74581Y-13214*
X74575*
X74263*
X74257*
X74254Y-13218*
X74251Y-13224*
X74250Y-13230*
X74251Y-13236*
X74254Y-13242*
X74257Y-13245*
X74263Y-13246*
X74403*
Y-13980*
X74263*
X74257Y-13982*
X74254Y-13986*
X74251Y-13991*
X74250Y-13998*
X74251Y-14003*
X74254Y-14009*
X74257Y-14012*
X74263Y-14014*
X74575*
X74581Y-14012*
X74586Y-14009*
X74588Y-14003*
X74589Y-13998*
X74588Y-13991*
X74586Y-13986*
X74581Y-13982*
X74575Y-13980*
X74434*
Y-13246*
X74575*
X74909Y-13347D02*
Y-13880D01*
X75032Y-13981*
X75290*
X75415Y-13880*
Y-13347*
X75290Y-13246*
X75032*
X74909Y-13347*
X75447Y-13339D02*
Y-13888D01*
X75446Y-13892*
X75445Y-13895*
X75444Y-13898*
X75442Y-13901*
X75307Y-14010*
X75303Y-14012*
X75302Y-14013*
X75301*
X75299Y-14014*
X75298*
X75297*
X75027*
X75024Y-14013*
X75021Y-14012*
X75018Y-14010*
X74883Y-13901*
X74880Y-13898*
X74878Y-13895*
X74877Y-13892*
X74876Y-13888*
Y-13339*
X74877Y-13335*
X74878Y-13332*
X74880Y-13330*
X74882Y-13329*
X74883Y-13326*
X75018Y-13217*
X75021Y-13216*
X75023Y-13215*
X75024Y-13214*
X75027*
X75297*
X75300*
X75301*
X75302Y-13215*
X75304Y-13216*
X75307Y-13217*
X75442Y-13326*
Y-13329*
X75444Y-13330*
X75445*
Y-13332*
X75446Y-13335*
X75447Y-13339*
X75631Y-13998D02*
X75633Y-14004D01*
X75637Y-14008*
X75642Y-14010*
X75647Y-14011*
X75654Y-14010*
X75659Y-14008*
X75663Y-14004*
X75665Y-13998*
Y-13281*
X76174Y-14007*
X76177Y-14010*
X76181Y-14012*
X76185*
X76190Y-14010*
X76195Y-14009*
X76200Y-14006*
X76202Y-14002*
X76203Y-13998*
Y-13230*
X76202Y-13224*
X76198Y-13219*
X76193Y-13217*
X76187Y-13216*
X76182Y-13217*
X76176Y-13219*
X76172Y-13224*
X76171Y-13230*
Y-13946*
X75661Y-13221*
X75658Y-13218*
X75654Y-13216*
X75650*
X75646Y-13217*
X75640Y-13218*
X75635Y-13220*
X75633Y-13224*
X75631Y-13230*
Y-13998*
G54D11*
X14488Y6299D02*
X13664Y5475D01*
Y3501*
X15214Y1952*
X23233*
X27139Y5857*
X29564*
X30039Y5382*
X21309Y4528D02*
X20197D01*
X21309Y5709D02*
X20915Y6102D01*
X20197*
X21309Y6890D02*
X20197D01*
X31039Y5382D02*
X30314Y6107D01*
X27035*
X24169Y3240*
X18994*
X17904Y4331*
X14488*
X32039Y5382D02*
X31064Y6357D01*
X26693*
X24439Y4103*
X22984*
X21969Y5118*
X21299*
X21102Y5315*
X20197*
X38039Y5382D02*
X36531Y6890D01*
X23809*
X39039Y5382D02*
X37106Y7315D01*
X23633*
X23384Y7066*
Y6134*
X23809Y5709*
X40039Y5382D02*
X37856Y7565D01*
X23529*
X23134Y7169*
Y5203*
X23809Y4528*
X41039Y4382D02*
X43483Y1938D01*
X50216*
X54380Y6102*
Y3346D02*
X52364Y1330D01*
X42091*
X39039Y4382*
X54380Y4528D02*
X51433Y1580D01*
X42841*
X40039Y4382*
X57874Y3740D02*
X57480Y3346D01*
X56880*
X57874Y4528D02*
X56880D01*
X57874Y5315D02*
X56417D01*
X54906Y6826*
X43972*
X42053Y4907*
X36514*
X36039Y5382*
X57874Y6102D02*
X56880D01*
X63583Y4331D02*
X60332Y1080D01*
X40341*
X37039Y4382*
X63583Y6299D02*
X64133Y5749D01*
Y4103*
X60860Y830*
X39591*
X36039Y4382*
G54D12*
X33039Y5382D02*
Y4882D01*
X35039*
Y4382*
G54D13*
X0Y-15000D02*
X78740D01*
Y-5000*
X0*
Y-15000*
X18000D02*
Y-5000D01*
X45500Y-15000D02*
Y-5000D01*
Y-12500D02*
X78740D01*
X45500Y-7500D02*
X78740D01*
X48500Y-13650D02*
G03X47750Y-12900I750D01*
X47000Y-13650J750*
X47750Y-14400I750*
X48500Y-13650J750*
G01X58000Y-12500D02*
Y-7500D01*
G54D14*
X14488Y4331D03*
Y5315D03*
Y6299D03*
X45472Y2855D03*
Y7775D03*
X47442Y2855D03*
Y7775D03*
X63583Y4331D03*
Y5315D03*
Y6299D03*
G54D15*
X17441Y2874D03*
Y7756D03*
X60630Y2874D03*
Y7756D03*
G54D16*
X20197Y3740D03*
Y4528D03*
Y5315D03*
Y6102D03*
Y6890D03*
X57874Y3740D03*
Y4528D03*
Y5315D03*
Y6102D03*
Y6890D03*
G54D17*
X850Y850D03*
Y1850D03*
Y2850D03*
Y3850D03*
Y4850D03*
Y5850D03*
Y6850D03*
Y7850D03*
X1850Y850D03*
Y1850D03*
Y2850D03*
Y3850D03*
Y4850D03*
Y5850D03*
Y6850D03*
Y7850D03*
X2850Y850D03*
Y1850D03*
Y2850D03*
Y3850D03*
Y4850D03*
Y5850D03*
Y6850D03*
Y7850D03*
X3850Y850D03*
Y1850D03*
Y2850D03*
Y3850D03*
Y4850D03*
Y5850D03*
Y6850D03*
Y7850D03*
X4850Y850D03*
Y1850D03*
Y2850D03*
Y3850D03*
Y4850D03*
Y5850D03*
Y6850D03*
Y7850D03*
X5850Y850D03*
Y1850D03*
Y2850D03*
Y3850D03*
Y4850D03*
Y5850D03*
Y6850D03*
Y7850D03*
X6850Y850D03*
Y1850D03*
Y2850D03*
Y3850D03*
Y4850D03*
Y5850D03*
Y6850D03*
Y7850D03*
X7850Y850D03*
Y1850D03*
Y2850D03*
Y3850D03*
Y4850D03*
Y5850D03*
Y6850D03*
Y7850D03*
X8850Y850D03*
Y1850D03*
Y2850D03*
Y3850D03*
Y4850D03*
Y5850D03*
Y6850D03*
Y7850D03*
X9850Y850D03*
Y1850D03*
Y2850D03*
Y3850D03*
Y4850D03*
Y5850D03*
Y6850D03*
Y7850D03*
X64950Y850D03*
Y1850D03*
Y2850D03*
Y3850D03*
Y4850D03*
Y5850D03*
Y6850D03*
Y7850D03*
X65950Y850D03*
Y1850D03*
Y2850D03*
Y3850D03*
Y4850D03*
Y5850D03*
Y6850D03*
Y7850D03*
X66950Y850D03*
Y1850D03*
Y2850D03*
Y3850D03*
Y4850D03*
Y5850D03*
Y6850D03*
Y7850D03*
X67950Y850D03*
Y1850D03*
Y2850D03*
Y3850D03*
Y4850D03*
Y5850D03*
Y6850D03*
Y7850D03*
X68950Y850D03*
Y1850D03*
Y2850D03*
Y3850D03*
Y4850D03*
Y5850D03*
Y6850D03*
Y7850D03*
X69950Y850D03*
Y1850D03*
Y2850D03*
Y3850D03*
Y4850D03*
Y5850D03*
Y6850D03*
Y7850D03*
X70950Y850D03*
Y1850D03*
Y2850D03*
Y3850D03*
Y4850D03*
Y5850D03*
Y6850D03*
Y7850D03*
X71950Y850D03*
Y1850D03*
Y2850D03*
Y3850D03*
Y4850D03*
Y5850D03*
Y6850D03*
Y7850D03*
X72950Y850D03*
Y1850D03*
Y2850D03*
Y3850D03*
Y4850D03*
Y5850D03*
Y6850D03*
Y7850D03*
X73950Y850D03*
Y1850D03*
Y2850D03*
Y3850D03*
Y4850D03*
Y5850D03*
Y6850D03*
Y7850D03*
G54D18*
X21309Y4528D03*
Y5709D03*
Y6890D03*
X23809Y4528D03*
Y5709D03*
Y6890D03*
X54380Y3346D03*
Y4528D03*
Y6102D03*
X56880Y3346D03*
Y4528D03*
Y6102D03*
G54D19*
X29039Y4382D03*
Y5382D03*
X30039Y4382D03*
Y5382D03*
X31039Y4382D03*
Y5382D03*
X32039Y4382D03*
Y5382D03*
X33039Y4382D03*
Y5382D03*
X34039Y4382D03*
Y5382D03*
X35039Y4382D03*
Y5382D03*
X36039Y4382D03*
Y5382D03*
X37039Y4382D03*
Y5382D03*
X38039Y4382D03*
Y5382D03*
X39039Y4382D03*
Y5382D03*
X40039Y4382D03*
Y5382D03*
X41039Y4382D03*
Y5382D03*
M02*
