; Version : LOCAL
; Job     : C:\Mentor_BBCRD\jobs\p869_1\pcb\p869_1.pcb
; User    : RD000357:malcolmr
; Date    : Mon Jun 30 09:08:41 2014
; Format  : 2.4 / Absolute / Inch / Trailing
; Contents: Thru / Drill / Plated
M48
INCH,LZ
FMAT,2
ICI,OFF
T05C0.0280
T04C0.0320
T02C0.0400
T03C0.0440
T01C0.0480
T07C0.0980
%
M72
G90
G93X0Y0
T05
X05438Y003346
X05688
Y004528
X05438
X023809
X021309
Y005709
X023809
X05688Y006102
X05438
X023809Y00689
X021309
T04
X07395Y00085
X07295
X07195
X07095
X06995
X06895
X06795
X06695
X06595
X06495
X00985
X00885
X00785
X00685
X00585
X00485
X00385
X00285
X00185
X00085
Y00185
X00185
X00285
X00385
X00485
X00585
X00685
X00785
X00885
X00985
X06495
X06595
X06695
X06795
X06895
X06995
X07095
X07195
X07295
X07395
Y00285
X07295
X07195
X07095
X06995
X06895
X06795
X06695
X06595
X06495
X00985
X00885
X00785
X00685
X00585
X00485
X00385
X00285
X00185
X00085
Y00385
X00185
X00285
X00385
X00485
X00585
X00685
X00785
X00885
X00985
X06495
X06595
X06695
X06795
X06895
X06995
X07095
X07195
X07295
X07395
Y00485
X07295
X07195
X07095
X06995
X06895
X06795
X06695
X06595
X06495
X00985
X00885
X00785
X00685
X00585
X00485
X00385
X00285
X00185
X00085
Y00585
X00185
X00285
X00385
X00485
X00585
X00685
X00785
X00885
X00985
X06495
X06595
X06695
X06795
X06895
X06995
X07095
X07195
X07295
X07395
Y00685
X07295
X07195
X07095
X06995
X06895
X06795
X06695
X06595
X06495
X00985
X00885
X00785
X00685
X00585
X00485
X00385
X00285
X00185
X00085
Y00785
X00185
X00285
X00385
X00485
X00585
X00685
X00785
X00885
X00985
X06495
X06595
X06695
X06795
X06895
X06995
X07095
X07195
X07295
X07395
T02
X020197Y00374
X057874
Y004528
X041039Y004382
X040039
X039039
X038039
X037039
X036039
X035039
X034039
X033039
X032039
X031039
X030039
X029039
X020197Y004528
Y005315
X029039Y005382
X030039
X031039
X032039
X033039
X034039
X035039
X036039
X037039
X038039
X039039
X040039
X041039
X057874Y005315
Y006102
Y00689
X020197Y006102
Y00689
T03
X063583Y004331
X014488
Y005315
X063583
Y006299
X014488
T01
X047442Y002855
X045472
Y007775
X047442
T07
X06063Y002874
X017441
Y007756
X06063
T00
M30
